<svg width="20" height="20" viewBox="0 0 20 20" fill="none" xmlns="http://www.w3.org/2000/svg">
<path d="M16.6665 6.66665L9.99984 10.8333L3.33317 6.66665V4.99998L9.99984 9.16665L16.6665 4.99998M16.6665 3.33331H3.33317C2.40817 3.33331 1.6665 4.07498 1.6665 4.99998V15C1.6665 15.442 1.8421 15.8659 2.15466 16.1785C2.46722 16.4911 2.89114 16.6666 3.33317 16.6666H16.6665C17.1085 16.6666 17.5325 16.4911 17.845 16.1785C18.1576 15.8659 18.3332 15.442 18.3332 15V4.99998C18.3332 4.55795 18.1576 4.13403 17.845 3.82147C17.5325 3.50891 17.1085 3.33331 16.6665 3.33331V3.33331Z" fill="#10284A"/>
</svg>
