<svg width="16" height="16" viewBox="0 0 16 16" fill="none" xmlns="http://www.w3.org/2000/svg">
<path d="M3.125 10.1021H5C5.34519 10.1021 5.625 9.82224 5.625 9.47705C5.625 9.13186 5.34519 8.85205 5 8.85205H3.125C2.77981 8.85205 2.5 9.13186 2.5 9.47705C2.5 9.82224 2.77981 10.1021 3.125 10.1021Z" fill="black"/>
<path d="M3.125 7.60205H5C5.34519 7.60205 5.625 7.32224 5.625 6.97705C5.625 6.63186 5.34519 6.35205 5 6.35205H3.125C2.77981 6.35205 2.5 6.63186 2.5 6.97705C2.5 7.32224 2.77981 7.60205 3.125 7.60205Z" fill="black"/>
<path d="M6.79492 9.47703C6.79492 9.82222 7.07473 10.102 7.41992 10.102C8.72683 10.102 9.95552 9.59309 10.8796 8.66897L15.4503 4.0979C16.183 3.36518 16.1831 2.17909 15.4503 1.44625C14.7192 0.715184 13.5297 0.715184 12.7986 1.44625L8.22798 6.01731C7.30389 6.94146 6.79492 8.17012 6.79492 9.47703ZM13.6825 2.33015C13.9262 2.08646 14.3227 2.08646 14.5664 2.33015C14.8106 2.57434 14.8107 2.96975 14.5664 3.21403L9.99573 7.78509C9.47327 8.30759 8.81998 8.65181 8.10974 8.78722C8.24514 8.077 8.58939 7.42372 9.11183 6.90122L13.6825 2.33015Z" fill="black"/>
<path d="M1.875 15.1021C2.33675 15.1021 2.78056 14.9326 3.12475 14.6249L3.98872 13.8521H10.375C12.0982 13.8521 13.5 12.4502 13.5 10.7271V9.32508C13.5 8.97989 13.2202 8.70008 12.875 8.70008C12.5298 8.70008 12.25 8.97989 12.25 9.32508V10.7271C12.25 11.7609 11.4089 12.6021 10.375 12.6021H3.75C3.59625 12.6021 3.44791 12.6587 3.33331 12.7612L2.2915 13.6931C2.17684 13.7956 2.02894 13.8521 1.875 13.8521C1.53038 13.8521 1.25 13.5717 1.25 13.2271V5.72705C1.25 4.69318 2.09113 3.85205 3.125 3.85205H8.36716C8.71234 3.85205 8.99216 3.57224 8.99216 3.22705C8.99216 2.88186 8.71234 2.60205 8.36716 2.60205H3.125C1.40184 2.60205 0 4.00393 0 5.72705V13.2271C0 14.2609 0.841125 15.1021 1.875 15.1021Z" fill="black"/>
</svg>
