<svg width="20" height="20" viewBox="0 0 20 20" fill="none" xmlns="http://www.w3.org/2000/svg">
<path d="M17.5751 5.81667C16.8668 5.03333 15.6834 4.64167 13.9668 4.64167H13.7668V4.60833C13.7668 3.20833 13.7668 1.475 10.6334 1.475H9.36678C6.23345 1.475 6.23345 3.21667 6.23345 4.60833V4.65H6.03345C4.30845 4.65 3.13345 5.04166 2.42511 5.825C1.60011 6.74166 1.62511 7.975 1.70845 8.81666L1.71678 8.875L1.77757 9.51328C1.79183 9.66305 1.87258 9.79843 1.99858 9.88066C2.20063 10.0125 2.51037 10.2113 2.70011 10.3167C2.81678 10.3917 2.94178 10.4583 3.06678 10.525C4.49178 11.3083 6.05845 11.8333 7.65011 12.0917C7.72511 12.875 8.06678 13.7917 9.89178 13.7917C11.7168 13.7917 12.0751 12.8833 12.1334 12.075C13.8334 11.8 15.4751 11.2083 16.9584 10.3417C17.0084 10.3167 17.0418 10.2917 17.0834 10.2667C17.4036 10.0857 17.7355 9.864 18.0401 9.64532C18.1533 9.56405 18.2255 9.43792 18.2409 9.29941L18.2501 9.21667L18.2918 8.825C18.3001 8.775 18.3001 8.73333 18.3084 8.675C18.3751 7.83333 18.3584 6.68333 17.5751 5.81667ZM10.9084 11.525C10.9084 12.4083 10.9084 12.5417 9.88345 12.5417C8.85845 12.5417 8.85845 12.3833 8.85845 11.5333V10.4833H10.9084V11.525ZM7.42511 4.64167V4.60833C7.42511 3.19167 7.42511 2.66667 9.36678 2.66667H10.6334C12.5751 2.66667 12.5751 3.2 12.5751 4.60833V4.65H7.42511V4.64167Z" fill="#10284A"/>
<path d="M17.2597 11.5091C17.6137 11.3418 18.0209 11.6223 17.9855 12.0123L17.7 15.1583C17.525 16.825 16.8416 18.525 13.175 18.525H6.82495C3.15828 18.525 2.47495 16.825 2.29995 15.1667L2.02924 12.1888C1.9942 11.8034 2.39252 11.5233 2.74555 11.682C3.70476 12.1131 5.31676 12.8065 6.35274 13.0854C6.51675 13.1296 6.6499 13.2476 6.7243 13.4003C7.23851 14.4556 8.32769 15.0167 9.89162 15.0167C11.4401 15.0167 12.5426 14.434 13.0588 13.3755C13.1333 13.2227 13.2664 13.1048 13.4304 13.0604C14.5322 12.7619 16.2536 11.9846 17.2597 11.5091Z" fill="#10284A"/>
</svg>
