<svg width="16" height="16" viewBox="0 0 16 16" fill="none" xmlns="http://www.w3.org/2000/svg">
<path d="M15.8795 4.75831C15.5641 3.20411 14.6625 1.86585 13.3405 0.989755C12.0184 0.113779 10.4344 -0.194937 8.88025 0.120493C7.32617 0.4358 5.98779 1.33753 5.11181 2.65955C4.23584 3.98158 3.927 5.56556 4.24243 7.11964C4.43542 8.07081 4.84839 8.9408 5.44238 9.67371L4.3999 10.7163C3.75476 10.6274 3.03564 11.0309 2.74914 11.1918C1.9126 11.6613 1.03259 12.3812 0.582519 12.7684L0.564819 12.7837L0.548218 12.8003C-0.182739 13.5313 -0.182739 14.7207 0.548218 15.4518C0.913818 15.8173 1.39392 16 1.87402 16C2.35413 16 2.83423 15.8173 3.19983 15.4518L3.22766 15.422C3.70703 14.8756 4.37207 14.0674 4.81909 13.3195C4.99988 13.017 5.4685 12.2328 5.32446 11.5595L6.32788 10.556C6.47302 10.673 6.62427 10.7839 6.78161 10.8882C7.76562 11.5403 8.89477 11.8781 10.0488 11.8781C10.4452 11.8781 10.8445 11.8383 11.2417 11.7576C12.0896 11.5856 12.8711 11.2411 13.5645 10.7339C13.727 10.615 13.8223 10.4251 13.8203 10.2236L13.8108 9.20008C13.8099 8.63844 13.5702 8.10438 13.1526 7.73426C12.8446 7.46131 12.4196 7.16102 11.8708 6.93678C12.1851 6.54188 12.3733 6.04273 12.3733 5.50013C12.3733 4.22511 11.3361 3.18775 10.061 3.18775C8.78589 3.18775 7.74866 4.22511 7.74866 5.50013C7.74866 6.04273 7.93701 6.54188 8.2511 6.93678C7.70239 7.16102 7.27746 7.46131 6.96936 7.73426C6.65063 8.01673 6.43555 8.39478 6.35119 8.80775C5.91601 8.24622 5.61279 7.58778 5.46741 6.8711C5.21838 5.64417 5.46216 4.39368 6.15369 3.34998C6.84534 2.30628 7.90185 1.59437 9.1289 1.34547C10.3558 1.09644 11.6064 1.34022 12.65 2.03175C13.6937 2.7234 14.4056 3.77992 14.6545 5.00697C14.8165 5.80482 14.7684 6.6327 14.5154 7.40089C14.4073 7.72877 14.5856 8.08204 14.9134 8.18995C15.2416 8.2981 15.5946 8.11976 15.7025 7.79188C16.0234 6.81776 16.0846 5.76868 15.8795 4.75831ZM10.061 4.43763C10.6468 4.43763 11.1234 4.91419 11.1234 5.50013C11.1234 6.08595 10.6468 6.56251 10.061 6.56251C9.4751 6.56251 8.99853 6.08595 8.99853 5.50013C8.99853 4.91419 9.4751 4.43763 10.061 4.43763ZM7.56116 9.20313C7.56116 8.99781 7.64758 8.80335 7.79834 8.66969C8.22473 8.29188 8.96338 7.84144 10.061 7.84144C11.1586 7.84144 11.8972 8.29188 12.3236 8.66969C12.4744 8.80335 12.5608 8.99781 12.5608 9.20313C12.5608 9.20521 12.5608 9.20704 12.5609 9.20911L12.5674 9.90174C12.0874 10.2059 11.5591 10.4177 10.993 10.5326C9.8009 10.7745 8.58642 10.5513 7.56116 9.90394V9.20313ZM2.30371 14.5798C2.0592 14.8115 1.67175 14.8076 1.43213 14.5679C1.19311 14.3289 1.18848 13.9429 1.41846 13.6981C2.02478 13.178 2.63257 12.7233 3.13184 12.4165C3.62805 12.1117 3.92346 12.0072 4.07959 11.9722C3.98828 12.308 3.5769 13.1256 2.30371 14.5798Z" fill="black"/>
</svg>
