<svg width="16" height="14" viewBox="0 0 16 14" fill="none" xmlns="http://www.w3.org/2000/svg">
<path d="M15.9891 0.614857C16.0671 0.251767 15.7112 -0.0543862 15.3639 0.0781125L0.30156 5.82806C0.120281 5.89727 0.000375878 6.07102 8.82106e-07 6.26505C-0.000374114 6.45911 0.118843 6.63333 0.299873 6.70324L4.53118 8.33744V13.4847C4.53118 13.7018 4.68027 13.8905 4.89152 13.9407C5.10136 13.9906 5.32017 13.8908 5.41854 13.6956L7.16856 10.2229L11.4393 13.3923C11.699 13.5851 12.0724 13.4625 12.167 13.1527C16.1544 0.0791442 15.982 0.647701 15.9891 0.614857ZM12.271 2.26228L4.93348 7.48782L1.77639 6.26852L12.271 2.26228ZM5.46867 8.25759L11.8645 3.70273C6.36097 9.50861 6.6484 9.20302 6.6244 9.23533C6.58875 9.2833 6.68644 9.09634 5.46867 11.5129V8.25759ZM11.4642 12.2434L7.70496 9.45352L14.5021 2.2829L11.4642 12.2434Z" fill="black"/>
</svg>
