<svg width="20" height="20" viewBox="0 0 20 20" fill="none" xmlns="http://www.w3.org/2000/svg">
<g clip-path="url(#clip0_1976_1461)">
<path d="M13.3333 2.29167C13.3333 4.09417 10.9833 6.33417 9.8125 7.27333C9.62929 7.42021 9.40149 7.50026 9.16667 7.50026C8.93185 7.50026 8.70404 7.42021 8.52083 7.27333C7.35 6.33333 5 4.09417 5 2.29167C4.97372 1.71185 5.17815 1.14523 5.56858 0.715755C5.95901 0.286284 6.50364 0.0289321 7.08333 0C7.66302 0.0289321 8.20766 0.286284 8.59809 0.715755C8.98851 1.14523 9.19295 1.71185 9.16667 2.29167C9.14038 1.71185 9.34482 1.14523 9.73525 0.715755C10.1257 0.286284 10.6703 0.0289321 11.25 0C11.8297 0.0289321 12.3743 0.286284 12.7648 0.715755C13.1552 1.14523 13.3596 1.71185 13.3333 2.29167V2.29167ZM19.4483 10.2917L13.0317 17.2992C12.2504 18.151 11.3005 18.831 10.2424 19.296C9.18417 19.761 8.04083 20.0007 6.885 20H3.33333C2.44928 20 1.60143 19.6488 0.976311 19.0237C0.35119 18.3986 0 17.5507 0 16.6667V12.5C0 11.6159 0.35119 10.7681 0.976311 10.143C1.60143 9.51786 2.44928 9.16667 3.33333 9.16667H9.8225C10.098 9.1672 10.3698 9.22929 10.6182 9.34841C10.8666 9.46753 11.0852 9.64066 11.258 9.85513C11.4309 10.0696 11.5536 10.32 11.6173 10.588C11.6809 10.856 11.6838 11.1349 11.6258 11.4042C11.5356 11.7809 11.3324 12.121 11.0435 12.3789C10.7545 12.6369 10.3936 12.8004 10.0092 12.8475L6.54 13.3333C6.32135 13.3647 6.1241 13.4816 5.99159 13.6583C5.85908 13.835 5.80216 14.0572 5.83333 14.2758C5.8645 14.4946 5.9813 14.6921 6.15806 14.8248C6.33481 14.9575 6.55703 15.0145 6.77583 14.9833L10.3192 14.4833C11.1537 14.3604 11.9166 13.9426 12.4696 13.3055C13.0226 12.6685 13.329 11.8544 13.3333 11.0108C13.3293 10.8325 13.3111 10.6547 13.2792 10.4792L16.2308 7.365C16.6201 6.94354 17.1603 6.69321 17.7334 6.6687C18.3066 6.64419 18.8662 6.84747 19.29 7.23417C19.7116 7.6206 19.9645 8.15725 19.9942 8.72842C20.0238 9.2996 19.8277 9.85953 19.4483 10.2875V10.2917Z" fill="#10284A"/>
</g>
<defs>
<clipPath id="clip0_1976_1461">
<rect width="20" height="20" fill="white"/>
</clipPath>
</defs>
</svg>
