<svg width="16" height="16" viewBox="0 0 16 16" fill="none" xmlns="http://www.w3.org/2000/svg">
<path d="M7.99997 3.1C4.8133 3.1 2.21997 5.69333 2.21997 8.88C2.21997 12.0667 4.8133 14.6667 7.99997 14.6667C11.1866 14.6667 13.78 12.0733 13.78 8.88666C13.78 5.7 11.1866 3.1 7.99997 3.1ZM8.49997 8.66667C8.49997 8.94 8.2733 9.16667 7.99997 9.16667C7.72664 9.16667 7.49997 8.94 7.49997 8.66667V5.33333C7.49997 5.06 7.72664 4.83333 7.99997 4.83333C8.2733 4.83333 8.49997 5.06 8.49997 5.33333V8.66667Z" fill="#BEBEBE"/>
<path d="M9.9266 2.3H6.07326C5.80659 2.3 5.59326 2.08667 5.59326 1.82C5.59326 1.55334 5.80659 1.33334 6.07326 1.33334H9.9266C10.1933 1.33334 10.4066 1.54667 10.4066 1.81334C10.4066 2.08 10.1933 2.3 9.9266 2.3Z" fill="#BEBEBE"/>
</svg>
