<svg width="17" height="16" viewBox="0 0 17 16" fill="none" xmlns="http://www.w3.org/2000/svg">
<path d="M13.7495 6.79334H11.8228C10.2428 6.79334 8.95618 5.50667 8.95618 3.92667V2C8.95618 1.63334 8.65618 1.33334 8.28951 1.33334H5.46285C3.40951 1.33334 1.74951 2.66667 1.74951 5.04667V10.9533C1.74951 13.3333 3.40951 14.6667 5.46285 14.6667H10.7028C12.7562 14.6667 14.4162 13.3333 14.4162 10.9533V7.46C14.4162 7.09334 14.1162 6.79334 13.7495 6.79334Z" fill="#BEBEBE"/>
<path d="M10.6161 1.47333C10.3427 1.2 9.86938 1.38667 9.86938 1.76667V4.09333C9.86938 5.06667 10.6961 5.87333 11.7027 5.87333C12.3361 5.88 13.2161 5.88 13.9694 5.88C14.3494 5.88 14.5494 5.43333 14.2827 5.16667C13.3227 4.2 11.6027 2.46 10.6161 1.47333Z" fill="#BEBEBE"/>
</svg>
