<svg width="16" height="14" viewBox="0 0 16 14" fill="none" xmlns="http://www.w3.org/2000/svg">
<path d="M12.6485 13.5621H3.35157C2.65802 13.5621 2.09375 12.9978 2.09375 12.3043V5.68652C2.09375 5.44491 2.28961 5.24902 2.53125 5.24902C2.77289 5.24902 2.96875 5.44491 2.96875 5.68652V12.3043C2.96875 12.5154 3.14047 12.6871 3.35157 12.6871H12.6485C12.8596 12.6871 13.0313 12.5154 13.0313 12.3043V5.68652C13.0313 5.44491 13.2271 5.24902 13.4688 5.24902C13.7104 5.24902 13.9063 5.44491 13.9063 5.68652V12.3043C13.9063 12.9978 13.342 13.5621 12.6485 13.5621Z" fill="#10284A" stroke="#10284A" stroke-width="0.5"/>
<path d="M14.5625 7.21764C14.4505 7.21764 14.3386 7.17493 14.2532 7.08948L8.81206 1.64842C8.36431 1.20063 7.63573 1.20063 7.18795 1.64842L1.74686 7.08951C1.57602 7.26038 1.299 7.26038 1.12815 7.08951C0.957282 6.91866 0.957282 6.64164 1.12815 6.4708L6.56924 1.02968C7.35817 0.240757 8.64188 0.240757 9.43077 1.02968L14.8719 6.47077C15.0427 6.64164 15.0427 6.91864 14.8719 7.08948C14.7865 7.17493 14.6745 7.21764 14.5625 7.21764V7.21764Z" fill="#10284A" stroke="#10284A" stroke-width="0.5"/>
<path d="M9.75001 13.562H6.25C6.00836 13.562 5.8125 13.3661 5.8125 13.1245V9.2417C5.8125 8.48783 6.42582 7.87451 7.17969 7.87451H8.82032C9.57419 7.87451 10.1875 8.48783 10.1875 9.2417V13.1245C10.1875 13.3661 9.99165 13.562 9.75001 13.562ZM6.6875 12.687H9.31251V9.2417C9.31251 8.97031 9.09171 8.74951 8.82032 8.74951H7.17969C6.9083 8.74951 6.6875 8.97031 6.6875 9.2417V12.687Z" fill="#10284A" stroke="#10284A" stroke-width="0.5"/>
</svg>
