<svg width="87" height="42" viewBox="0 0 87 42" fill="none" xmlns="http://www.w3.org/2000/svg">
<path d="M3.00179 32.6463C3.00179 32.6463 -4.40215 23.6165 4.04593 10.2338C4.04593 10.2338 10.5006 1.29659 12.5415 0C12.5415 0 15.579 3.65824 13.4432 8.56676C13.4432 8.56676 10.9278 13.2901 7.51059 17.8744C7.46313 17.8744 1.38811 27.0895 3.00179 32.6463Z" fill="#1F5BD0"/>
<path d="M9.40903 38.203C9.40903 38.203 2.0051 34.591 6.79867 23.709C6.79867 23.709 10.026 16.8092 16.4333 9.26123C16.4333 9.26123 19.7556 12.6879 17.9995 17.5038C16.7655 20.8842 16.2909 20.8842 14.8671 23.4774C14.8671 23.4774 7.46313 34.591 9.40903 38.203Z" fill="#1F5BD0"/>
<path d="M14.7245 41.9999C14.7245 41.9999 9.02918 39.2215 12.7312 30.84C12.7312 30.84 15.1991 25.5147 20.1351 19.7263C20.1351 19.7263 21.9386 22.088 21.464 24.9127C20.9419 27.8763 20.23 28.8951 18.9486 30.6547C18.9011 30.6547 13.2532 39.2215 14.7245 41.9999Z" fill="#1F5BD0"/>
<path d="M41.063 26.09V27.6975H31.5437V14.897H40.7579V16.5045H33.4354V20.4339H39.9647V21.9819H33.4354V26.09H41.063Z" fill="#1F5BD0"/>
<path d="M50.0337 27.6978L47.1657 24.0065L44.2976 27.6978H42.2839L46.1893 22.7562L42.467 18.0527H44.4807L47.2267 21.5059L49.9116 18.0527H51.8643L48.142 22.7562L52.1084 27.6978H50.0337Z" fill="#1F5BD0"/>
<path d="M54.3661 27.4601C53.6338 27.2219 53.0236 26.9838 52.5964 26.6266L53.3287 25.2572C53.7558 25.5549 54.305 25.793 54.9152 25.9717C55.5255 26.1503 56.1357 26.2693 56.8069 26.2693C58.3935 26.2693 59.1867 25.8526 59.1867 24.9595C59.1867 24.6618 59.0647 24.4237 58.8816 24.2451C58.6986 24.0665 58.3935 23.9474 58.0884 23.8878C57.7833 23.8283 57.2951 23.7092 56.7459 23.6497C55.9526 23.5306 55.2814 23.4115 54.7932 23.2329C54.305 23.0543 53.8779 22.8162 53.5118 22.459C53.1456 22.1017 52.9626 21.5659 52.9626 20.8514C52.9626 19.9584 53.3287 19.3035 54.0609 18.7676C54.7932 18.2318 55.8306 17.9937 57.051 17.9937C57.7222 17.9937 58.3935 18.0532 59.0037 18.2318C59.6749 18.4104 60.2241 18.589 60.6513 18.8867L59.858 20.2561C59.0647 19.7202 58.0884 19.4821 56.99 19.4821C56.2577 19.4821 55.6475 19.6012 55.2814 19.8393C54.8542 20.0775 54.6712 20.3751 54.6712 20.7919C54.6712 21.0896 54.7932 21.3277 55.0373 21.5659C55.2814 21.804 55.5255 21.8636 55.8916 21.9827C56.1967 22.0422 56.6849 22.1613 57.2951 22.2803C58.0884 22.3994 58.7596 22.578 59.2478 22.6971C59.7359 22.8757 60.1631 23.1139 60.5292 23.4711C60.8954 23.8283 61.0784 24.3641 61.0784 25.0191C61.0784 25.9121 60.7123 26.567 59.919 27.1029C59.1257 27.6387 58.0884 27.8769 56.8069 27.8769C55.8916 27.7578 55.1593 27.6982 54.3661 27.4601Z" fill="#1F5BD0"/>
<path d="M64.7394 27.1616C63.9461 26.7448 63.3359 26.1495 62.9088 25.3755C62.4816 24.6015 62.2375 23.768 62.2375 22.8154C62.2375 21.8628 62.4816 21.0293 62.9088 20.2553C63.3359 19.4813 63.9461 18.9454 64.7394 18.5287C65.5327 18.1119 66.387 17.8738 67.3633 17.8738C68.3397 17.8738 69.255 18.1119 69.9873 18.5287C70.7805 18.9454 71.3908 19.5408 71.8179 20.2553C72.2451 21.0293 72.4891 21.8628 72.4891 22.8154C72.4891 23.768 72.2451 24.6015 71.8179 25.3755C71.3908 26.1495 70.7805 26.6853 69.9873 27.1616C69.194 27.5784 68.3397 27.8165 67.3633 27.8165C66.387 27.757 65.5327 27.5784 64.7394 27.1616ZM69.0719 25.8518C69.5601 25.5541 69.9873 25.1373 70.2313 24.661C70.5365 24.1252 70.6585 23.5298 70.6585 22.8749C70.6585 22.22 70.5365 21.6246 70.2313 21.0888C69.9262 20.553 69.5601 20.1957 69.0719 19.898C68.5838 19.6004 67.9736 19.4813 67.3633 19.4813C66.7531 19.4813 66.1429 19.6004 65.6547 19.898C65.1666 20.1957 64.7394 20.553 64.4343 21.0888C64.1292 21.6246 64.0072 22.22 64.0072 22.8749C64.0072 23.5298 64.1292 24.1252 64.4343 24.661C64.7394 25.1969 65.1056 25.5541 65.6547 25.8518C66.1429 26.1495 66.7531 26.2685 67.3633 26.2685C67.9736 26.2685 68.5838 26.0899 69.0719 25.8518Z" fill="#1F5BD0"/>
<path d="M76.2727 17.1597V17.9932H79.1407V19.4221H76.2727V27.6383H74.503V19.4817H72.7944V18.0528H74.503V17.2192C74.503 16.2666 74.8081 15.4926 75.3573 14.9568C75.9065 14.421 76.7608 14.1233 77.7372 14.1233C78.1643 14.1233 78.5305 14.1828 78.8356 14.2424C79.2017 14.3614 79.5068 14.4805 79.7509 14.6591L79.2017 15.9689C78.7745 15.6713 78.3474 15.4926 77.7982 15.4926C76.8219 15.4926 76.2727 16.0285 76.2727 17.1597Z" fill="#1F5BD0"/>
<path d="M86.951 27.1027C86.7069 27.3408 86.3408 27.4599 85.9747 27.579C85.6086 27.6981 85.1814 27.7576 84.7543 27.7576C83.7779 27.7576 82.9846 27.5194 82.4355 26.9836C81.8863 26.4478 81.6422 25.7333 81.6422 24.7212V19.4224H79.9336V17.9935H81.6422V15.9097H83.4118V17.9935H86.2798V19.4224H83.4118V24.6616C83.4118 25.1975 83.5338 25.6142 83.8389 25.8524C84.083 26.1501 84.5102 26.2692 84.9983 26.2692C85.5475 26.2692 86.0357 26.0905 86.4018 25.7929L86.951 27.1027Z" fill="#1F5BD0"/>
</svg>
