<svg width="20" height="20" viewBox="0 0 20 20" fill="none" xmlns="http://www.w3.org/2000/svg">
<path d="M13.0153 4.49351C11.8863 2.18806 9.52441 0.663834 6.87513 0.663834C3.08433 0.663834 0.000301025 3.73036 0.000301025 7.49961C0.000301025 8.52396 0.220218 9.50577 0.65427 10.4212L0.0116679 13.6346C-0.070127 14.0436 0.290724 14.4052 0.699854 14.3243L3.95286 13.6811C4.39086 13.8889 4.84397 14.0469 5.30955 14.1557C4.26594 9.21285 8.01257 4.57312 13.0153 4.49351Z" fill="#10284A"/>
<path d="M19.346 15.4212C19.4582 15.1844 19.5558 14.9432 19.6393 14.698H19.6179C21.0807 10.4045 18.0045 5.89191 13.4631 5.67218C13.463 5.67195 13.463 5.67171 13.4629 5.67148C9.55532 5.49141 6.30884 8.62008 6.30884 12.4996C6.30884 16.2657 9.36974 19.3298 13.1346 19.3353C14.1558 19.3339 15.1346 19.1141 16.0473 18.6811C19.61 19.3855 19.3322 19.3354 19.414 19.3354C19.7843 19.3354 20.0609 18.9961 19.9886 18.6346L19.346 15.4212Z" fill="#10284A"/>
</svg>
