<svg width="414" height="120" viewBox="0 0 414 120" fill="none" xmlns="http://www.w3.org/2000/svg">
<g clip-path="url(#clip0_2018_2433)">
<rect width="414" height="120" fill="url(#paint0_linear_2018_2433)"/>
<path opacity="0.6" d="M194.403 -28L49 54.9622" stroke="white" stroke-width="0.5" stroke-miterlimit="10"/>
<path opacity="0.6" d="M414 8L291 78.1974L385 136" stroke="white" stroke-width="0.5" stroke-miterlimit="10"/>
<path opacity="0.3" d="M-11 60.0025L53.9975 98L119 60.0025L53.9975 22L-11 60.0025Z" fill="#839EDE"/>
<path opacity="0.3" d="M322.73 73.3097L380.983 107.234L439.231 73.3097L380.983 39.3901L322.73 73.3097Z" fill="#839EDE"/>
<path opacity="0.3" d="M411.178 119.829L529.951 189L648.725 119.829L529.951 50.6587L411.178 119.829Z" fill="#839EDE"/>
<path opacity="0.6" d="M369.5 -4L499.559 74.981L407.563 128.6L99.5 126.5L53.5 98.5L118.824 60.6793L31.4498 6L-70 63.8474L56.3481 135.857" stroke="white" stroke-width="0.5" stroke-miterlimit="10"/>
<path d="M-23.0293 34.2615L54.0258 79.1383L131.085 34.2615L54.0258 -10.6152L-23.0293 34.2615Z" fill="url(#paint1_linear_2018_2433)"/>
<path d="M54.0256 85.7357L131.085 40.859V34.2622L54.0256 79.139V85.7357Z" fill="url(#paint2_linear_2018_2433)"/>
<path d="M-23.0293 40.859L54.0258 85.7357V79.139L-23.0293 34.2622V40.859Z" fill="url(#paint3_linear_2018_2433)"/>
<path d="M73.4458 97.7503L115.735 122.377L158.029 97.7503L115.735 73.1191L73.4458 97.7503Z" fill="url(#paint4_linear_2018_2433)"/>
<path d="M115.735 126L158.029 101.369V97.7505L115.735 122.378V126Z" fill="url(#paint5_linear_2018_2433)"/>
<path d="M73.4458 101.369L115.735 126V122.378L73.4458 97.7505V101.369Z" fill="url(#paint6_linear_2018_2433)"/>
<path opacity="0.6" d="M345.663 -8L267 36.8861L394.704 110.529" stroke="white" stroke-width="0.5" stroke-miterlimit="10"/>
<path d="M260 8.39872L315.631 40.7974L371.261 8.39872L315.631 -24L260 8.39872Z" fill="url(#paint7_linear_2018_2433)"/>
<path d="M315.631 45.5588L371.262 13.1601V8.39893L315.631 40.7977V45.5588Z" fill="url(#paint8_linear_2018_2433)"/>
<path d="M260 13.1601L315.631 45.5588V40.7977L260 8.39893V13.1601Z" fill="url(#paint9_linear_2018_2433)"/>
<path opacity="0.6" d="M-131 79.7725L14.3987 162.735" stroke="white" stroke-miterlimit="10"/>
<path d="M316 72.8474L394.726 118.695L473.447 72.8474L394.726 27L316 72.8474Z" fill="url(#paint10_linear_2018_2433)"/>
<path d="M394.726 125.432L473.448 79.5851V72.8472L394.726 118.695V125.432Z" fill="url(#paint11_linear_2018_2433)"/>
<path d="M316 79.5851L394.726 125.432V118.695L316 72.8472V79.5851Z" fill="url(#paint12_linear_2018_2433)"/>
<rect x="-9" width="432" height="119" fill="#132642" fill-opacity="0.3"/>
<path d="M207.393 33.7788C207.505 34.0045 209.67 38.3008 208.051 41.6449C207.957 41.7939 206.145 44.6641 203.559 47.1688C203.523 47.1463 198.928 52.5257 200.127 58.0812C199.85 57.5261 194.579 46.9567 200.968 38.9823C201.214 38.7341 205.845 34.0135 207.389 33.7788H207.393Z" fill="url(#paint13_linear_2018_2433)"/>
<path d="M211.679 37.2215C211.679 37.1764 211.679 37.1267 211.679 37.0816C211.679 36.9823 211.679 36.8876 211.679 36.7883C211.679 36.7386 211.674 36.689 211.67 36.6393C211.67 36.6168 211.67 36.5987 211.67 36.5762C211.67 36.5491 211.67 36.522 211.67 36.4949C211.665 36.3957 211.656 36.2964 211.648 36.1971C211.643 36.1294 211.634 36.0662 211.625 36.003C211.625 35.985 211.625 35.9624 211.621 35.9444C211.621 35.9263 211.621 35.9082 211.616 35.8902C211.603 35.7864 211.589 35.6826 211.571 35.5788C211.563 35.5156 211.549 35.4569 211.54 35.3938C211.54 35.3712 211.531 35.3441 211.527 35.3216C211.527 35.299 211.518 35.2809 211.518 35.2584C211.495 35.141 211.473 35.0282 211.451 34.9154C211.442 34.8793 211.433 34.8432 211.424 34.8116C211.415 34.7755 211.406 34.7394 211.397 34.7033C211.388 34.6582 211.375 34.6085 211.366 34.5634C211.339 34.4551 211.312 34.3513 211.281 34.252C211.281 34.2384 211.272 34.2204 211.267 34.2068C211.267 34.2068 211.267 34.1978 211.267 34.1933C211.227 34.0534 211.187 33.9225 211.146 33.7917C211.142 33.7736 211.137 33.7601 211.133 33.7465C211.111 33.6788 211.093 33.6202 211.07 33.557C211.048 33.4938 211.026 33.4216 211.003 33.3584C210.994 33.3404 210.99 33.3223 210.985 33.3043C210.95 33.1959 210.909 33.1012 210.874 33.0064C210.86 32.9703 210.847 32.9297 210.833 32.8981C210.833 32.8891 210.824 32.88 210.82 32.871C210.811 32.8439 210.797 32.8214 210.789 32.7943C210.757 32.713 210.721 32.6363 210.695 32.5641C210.681 32.5325 210.672 32.5055 210.659 32.4784C210.65 32.4558 210.641 32.4332 210.632 32.4107C210.618 32.3836 210.614 32.3701 210.601 32.3475C210.569 32.2798 210.542 32.2211 210.52 32.1715C210.507 32.1444 210.498 32.1264 210.489 32.1083C210.462 32.0542 210.444 32.0181 210.435 32L207.402 33.7781C207.402 33.7781 207.433 33.8368 207.455 33.8864C207.464 33.9045 207.473 33.927 207.482 33.9451C207.505 33.9947 207.536 34.0579 207.563 34.1256C207.581 34.1662 207.598 34.2068 207.621 34.2565C207.634 34.2836 207.643 34.3106 207.657 34.3422C207.688 34.4144 207.719 34.4912 207.751 34.5724C207.76 34.5995 207.773 34.622 207.782 34.6491C207.8 34.6897 207.818 34.7394 207.836 34.7845C207.871 34.8793 207.907 34.9786 207.947 35.0824C207.974 35.1636 208.006 35.2493 208.032 35.3351C208.055 35.3983 208.073 35.4569 208.095 35.5201C208.14 35.6691 208.189 35.818 208.234 35.9805C208.234 35.994 208.243 36.012 208.247 36.0256C208.288 36.17 208.328 36.3234 208.364 36.4769C208.373 36.513 208.381 36.5491 208.39 36.5852C208.426 36.7522 208.462 36.9192 208.493 37.0952C208.493 37.1177 208.502 37.1448 208.507 37.1674C208.538 37.3479 208.565 37.5329 208.587 37.718C208.587 37.736 208.587 37.7586 208.592 37.7766C208.614 37.9662 208.632 38.1557 208.641 38.3498C208.641 38.3723 208.641 38.3904 208.641 38.413C208.65 38.607 208.654 38.8011 208.65 38.9951C208.65 39.0177 208.65 39.0403 208.65 39.0583C208.645 39.2569 208.632 39.4555 208.61 39.654C208.61 39.6721 208.61 39.6901 208.605 39.7037C208.583 39.9068 208.547 40.1098 208.507 40.3084C208.507 40.3265 208.502 40.34 208.498 40.3581C208.458 40.5521 208.399 40.7416 208.341 40.9312C208.328 40.9673 208.319 41.0034 208.305 41.035C208.234 41.2381 208.158 41.4367 208.059 41.6307C207.965 41.7796 206.153 44.6499 203.567 47.1546C203.567 47.1546 203.545 47.1727 203.518 47.2042C203.509 47.2133 203.505 47.2223 203.496 47.2313C203.464 47.2629 203.429 47.308 203.384 47.3622C203.375 47.3757 203.366 47.3803 203.357 47.3938C203.299 47.466 203.232 47.5472 203.16 47.6465C203.142 47.6691 203.124 47.6962 203.107 47.7187C203.044 47.8045 202.972 47.8993 202.901 48.003C202.878 48.0346 202.856 48.0662 202.834 48.0978C202.74 48.2332 202.641 48.3731 202.538 48.5311C202.52 48.5581 202.503 48.5852 202.485 48.6123C202.426 48.7026 202.368 48.7928 202.306 48.8921C202.288 48.9192 202.27 48.9508 202.256 48.9778C202.113 49.208 201.966 49.4517 201.818 49.718C201.809 49.736 201.796 49.7541 201.787 49.7721C201.63 50.0519 201.478 50.3543 201.326 50.6702C201.308 50.7063 201.29 50.7379 201.272 50.7785C201.25 50.8237 201.236 50.8733 201.214 50.9139C201.062 51.2389 200.919 51.5818 200.784 51.9384C200.767 51.979 200.749 52.0196 200.735 52.0602C200.731 52.0738 200.726 52.0918 200.717 52.1099C200.65 52.2994 200.588 52.4935 200.525 52.692C200.489 52.8004 200.453 52.8996 200.422 53.0079C200.422 53.017 200.418 53.0305 200.413 53.0395C200.4 53.0892 200.386 53.1433 200.373 53.193C200.324 53.378 200.27 53.5585 200.23 53.7481C200.216 53.8067 200.207 53.8654 200.194 53.9241C200.18 53.9873 200.167 54.0504 200.154 54.1136C200.136 54.1949 200.118 54.2761 200.104 54.3573C200.073 54.5333 200.046 54.7093 200.024 54.8899C200.024 54.9169 200.019 54.9395 200.015 54.9666C200.015 54.9937 200.01 55.0162 200.006 55.0433C199.997 55.1381 199.984 55.2328 199.975 55.3321C199.961 55.4675 199.957 55.6029 199.948 55.7383C199.948 55.8195 199.943 55.8963 199.943 55.9775C199.943 55.991 199.943 56.0091 199.943 56.0226C199.943 56.0452 199.943 56.0678 199.943 56.0903C199.943 56.2077 199.943 56.325 199.943 56.4423C199.943 56.5416 199.952 56.6364 199.957 56.7357C199.961 56.835 199.97 56.9297 199.979 57.029C199.988 57.1238 199.997 57.2141 200.01 57.3088C200.019 57.3946 200.033 57.4803 200.046 57.5661C200.06 57.6518 200.073 57.7376 200.091 57.8233C200.104 57.9045 200.122 57.9858 200.14 58.067L203.174 56.2889C203.098 55.9414 203.048 55.5939 203.013 55.2509C202.981 54.9124 202.968 54.5785 202.972 54.2445C202.972 54.231 202.972 54.2129 202.972 54.1994C202.977 53.8835 202.999 53.5721 203.035 53.2652C203.035 53.2381 203.039 53.2155 203.044 53.1885C203.08 52.8996 203.124 52.6153 203.178 52.3355C203.192 52.2723 203.205 52.2091 203.214 52.146C203.268 51.8978 203.326 51.6586 203.393 51.4194C203.406 51.3697 203.42 51.3156 203.433 51.2659C203.469 51.1486 203.509 51.0358 203.545 50.9184C203.608 50.7244 203.67 50.5258 203.737 50.3363C203.76 50.2776 203.782 50.2234 203.804 50.1648C203.939 49.8082 204.082 49.4698 204.234 49.1448C204.27 49.0636 204.31 48.9779 204.346 48.8966C204.498 48.5852 204.65 48.2783 204.807 47.9985C204.816 47.9805 204.825 47.9624 204.838 47.9444C204.986 47.6781 205.133 47.4299 205.276 47.1997C205.353 47.0734 205.433 46.9515 205.509 46.8342C205.527 46.8071 205.545 46.78 205.563 46.753C205.666 46.595 205.764 46.4506 205.858 46.3197C205.88 46.2836 205.903 46.2565 205.93 46.2204C206.001 46.1211 206.073 46.0264 206.135 45.9406C206.153 45.918 206.176 45.891 206.194 45.8639C206.27 45.7691 206.337 45.6834 206.39 45.6112C206.404 45.5976 206.408 45.5886 206.422 45.5751C206.467 45.5209 206.502 45.4803 206.529 45.4442C206.538 45.4352 206.547 45.4216 206.556 45.4171C206.583 45.3855 206.605 45.3675 206.605 45.3675C209.191 42.8628 210.999 39.9925 211.097 39.8436C211.106 39.8255 211.115 39.8075 211.12 39.7939C211.191 39.645 211.254 39.4916 211.308 39.3381C211.316 39.3065 211.325 39.2749 211.339 39.2479C211.352 39.2117 211.361 39.1756 211.375 39.1441C211.393 39.0809 211.415 39.0222 211.437 38.959C211.473 38.8417 211.5 38.7243 211.527 38.607C211.527 38.5935 211.527 38.5844 211.536 38.5709C211.536 38.5529 211.54 38.5393 211.545 38.5213C211.563 38.44 211.58 38.3543 211.594 38.273C211.612 38.1692 211.625 38.0655 211.639 37.9617C211.639 37.9481 211.639 37.9301 211.643 37.9165C211.643 37.8985 211.643 37.8849 211.648 37.8669C211.656 37.7947 211.665 37.727 211.67 37.6548C211.679 37.5555 211.683 37.4562 211.688 37.3569C211.688 37.3253 211.688 37.2982 211.688 37.2667C211.688 37.2441 211.688 37.2215 211.688 37.2035L211.679 37.2215Z" fill="url(#paint14_linear_2018_2433)"/>
<path d="M210.296 43.5676C210.421 43.7888 212.788 48.0129 211.455 51.4428C210.52 53.8527 210.162 53.6451 209.084 55.2788C208.802 55.5992 203.482 61.7279 204.936 65.7354C204.659 65.415 199.375 59.336 203.008 51.9392C203.129 51.709 205.455 47.336 210.296 43.5586V43.5676Z" fill="url(#paint15_linear_2018_2433)"/>
<path d="M214.892 47.6644C214.892 47.5696 214.896 47.4793 214.896 47.3846C214.896 47.2898 214.896 47.1995 214.896 47.1093C214.896 47.0867 214.896 47.0596 214.896 47.0371C214.896 47.019 214.896 47.001 214.896 46.9829C214.896 46.9287 214.896 46.8791 214.887 46.825C214.883 46.7302 214.874 46.6354 214.865 46.5451C214.861 46.4955 214.852 46.4413 214.847 46.3917C214.847 46.3691 214.847 46.3511 214.838 46.3285C214.838 46.3014 214.834 46.2789 214.829 46.2518C214.816 46.1525 214.802 46.0577 214.789 45.9585C214.78 45.8862 214.767 45.8186 214.753 45.7509C214.753 45.7328 214.749 45.7148 214.744 45.6967C214.744 45.6832 214.74 45.6651 214.735 45.6516C214.713 45.5433 214.695 45.4349 214.668 45.3311C214.655 45.2725 214.641 45.2138 214.628 45.1506C214.623 45.1236 214.615 45.0965 214.61 45.0694C214.606 45.0468 214.601 45.0198 214.592 44.9972C214.561 44.8708 214.529 44.749 214.494 44.6316C214.489 44.6091 214.48 44.5865 214.471 44.5639C214.458 44.5233 214.449 44.4827 214.436 44.4421C214.418 44.3744 214.395 44.3067 214.377 44.2435C214.359 44.1849 214.342 44.1307 214.324 44.0765C214.306 44.0179 214.288 43.9637 214.266 43.905C214.257 43.8735 214.243 43.8419 214.234 43.8103C214.212 43.7471 214.189 43.6929 214.167 43.6298C214.14 43.553 214.109 43.4763 214.082 43.3996C214.073 43.377 214.064 43.35 214.055 43.3319C214.042 43.2913 214.024 43.2597 214.011 43.2236C213.957 43.0927 213.908 42.9709 213.854 42.8535C213.845 42.8264 213.832 42.7994 213.818 42.7723C213.805 42.7452 213.796 42.7272 213.787 42.7001C213.756 42.6369 213.729 42.5782 213.702 42.515C213.675 42.4609 213.653 42.4067 213.626 42.3571C213.599 42.3029 213.577 42.2578 213.554 42.2127C213.541 42.1856 213.527 42.154 213.514 42.1314C213.505 42.1134 213.5 42.1044 213.492 42.0908C213.46 42.0322 213.438 41.9915 213.415 41.9464C213.402 41.9238 213.393 41.9058 213.384 41.8877C213.357 41.8381 213.339 41.8065 213.33 41.793L210.297 43.5711C210.297 43.5711 210.324 43.6207 210.351 43.6704C210.36 43.6839 210.369 43.7065 210.378 43.72C210.4 43.7606 210.427 43.8103 210.458 43.8689C210.476 43.905 210.498 43.9457 210.516 43.9863C210.539 44.0314 210.565 44.0811 210.588 44.1352C210.61 44.1849 210.637 44.239 210.664 44.2932C210.691 44.3518 210.718 44.4105 210.749 44.4782C210.771 44.5278 210.794 44.582 210.816 44.6316C210.865 44.749 210.919 44.8708 210.973 45.0017C210.995 45.0604 211.022 45.119 211.044 45.1822C211.071 45.2544 211.102 45.3357 211.129 45.4124C211.161 45.5026 211.196 45.5929 211.228 45.6877C211.246 45.7418 211.263 45.8005 211.286 45.8592C211.326 45.9765 211.362 46.0984 211.402 46.2247C211.416 46.2653 211.429 46.306 211.438 46.3511C211.487 46.5181 211.532 46.685 211.572 46.861C211.577 46.8881 211.586 46.9152 211.59 46.9423C211.63 47.1228 211.671 47.3033 211.706 47.4884C211.706 47.5064 211.711 47.5245 211.715 47.547C211.747 47.7366 211.778 47.9261 211.8 48.1247C211.8 48.1473 211.805 48.1653 211.809 48.1879C211.832 48.3819 211.845 48.5805 211.854 48.7791C211.854 48.7971 211.854 48.8152 211.854 48.8332C211.863 49.0453 211.863 49.2575 211.854 49.4696C211.854 49.4741 211.854 49.4786 211.854 49.4831C211.845 49.6907 211.827 49.9028 211.796 50.1104C211.796 50.133 211.791 50.151 211.787 50.1736C211.76 50.3676 211.72 50.5662 211.671 50.7603C211.662 50.7874 211.657 50.8189 211.648 50.846C211.595 51.0491 211.532 51.2567 211.451 51.4553C211.38 51.6403 211.313 51.8028 211.25 51.9607C211.232 52.0059 211.214 52.0465 211.196 52.0916C211.147 52.2044 211.102 52.3082 211.058 52.4075C211.04 52.4436 211.026 52.4752 211.008 52.5113C210.941 52.6512 210.879 52.7776 210.816 52.8904C210.803 52.913 210.789 52.9355 210.776 52.9581C210.718 53.0619 210.664 53.1522 210.61 53.2424C210.601 53.256 210.592 53.2695 210.583 53.283C210.534 53.3598 210.485 53.4365 210.436 53.5042C210.422 53.5222 210.413 53.5358 210.4 53.5538C210.36 53.608 210.324 53.6621 210.284 53.7118C210.266 53.7343 210.248 53.7569 210.234 53.7749C210.199 53.8201 210.163 53.8652 210.127 53.9103C210.109 53.9329 210.091 53.9555 210.073 53.9735C210.029 54.0277 209.984 54.0818 209.935 54.1405C209.876 54.2082 209.818 54.2804 209.756 54.3571C209.742 54.3752 209.724 54.3977 209.711 54.4158C209.666 54.4699 209.621 54.5286 209.572 54.5918C209.55 54.6189 209.527 54.6505 209.51 54.6775C209.465 54.7407 209.416 54.8039 209.366 54.8716C209.344 54.9032 209.322 54.9303 209.299 54.9619C209.228 55.0611 209.156 55.1695 209.076 55.2913C209.058 55.3094 209.026 55.3455 208.982 55.3996C208.964 55.4177 208.946 55.4448 208.923 55.4673C208.883 55.5124 208.843 55.5621 208.789 55.6253C208.762 55.6614 208.731 55.6975 208.7 55.7336C208.646 55.8013 208.588 55.8735 208.525 55.9502C208.485 55.9999 208.445 56.0495 208.404 56.1036C208.337 56.1894 208.27 56.2751 208.199 56.3699C208.149 56.4331 208.105 56.4918 208.055 56.5595C207.979 56.6633 207.899 56.7716 207.814 56.8844C207.765 56.9521 207.715 57.0198 207.662 57.092C207.559 57.2364 207.456 57.3853 207.349 57.5433C207.313 57.5929 207.281 57.6381 207.246 57.6922C207.111 57.8953 206.973 58.1029 206.839 58.3195C206.839 58.3286 206.83 58.3331 206.825 58.3421C206.646 58.6264 206.467 58.9288 206.293 59.2357C206.244 59.3214 206.203 59.4072 206.154 59.4884C206.024 59.7231 205.903 59.9622 205.787 60.2059C205.756 60.2691 205.725 60.3233 205.693 60.3865C205.671 60.4316 205.657 60.4767 205.635 60.5264C205.523 60.7746 205.416 61.0228 205.322 61.2755C205.295 61.3432 205.264 61.4064 205.237 61.4741C205.228 61.4967 205.223 61.5192 205.214 61.5418C205.183 61.6275 205.161 61.7088 205.129 61.7945C205.085 61.9299 205.036 62.0608 204.995 62.1962C204.977 62.2594 204.964 62.318 204.946 62.3812C204.933 62.4354 204.919 62.485 204.906 62.5392C204.892 62.5978 204.874 62.6565 204.861 62.7197C204.83 62.8641 204.798 63.0085 204.772 63.1529C204.763 63.1981 204.758 63.2432 204.749 63.2928C204.749 63.3109 204.745 63.3289 204.74 63.3425C204.736 63.3786 204.727 63.4147 204.722 63.4508C204.709 63.5501 204.7 63.6494 204.691 63.7441C204.687 63.8209 204.682 63.8931 204.678 63.9698C204.678 64.033 204.678 64.0961 204.673 64.1548C204.673 64.1548 204.673 64.1548 204.673 64.1593C204.673 64.1593 204.673 64.1638 204.673 64.1684C204.673 64.236 204.673 64.2992 204.673 64.3669C204.673 64.4256 204.673 64.4843 204.682 64.5429C204.682 64.5926 204.687 64.6377 204.691 64.6873C204.695 64.737 204.7 64.7821 204.704 64.8272C204.709 64.8724 204.718 64.922 204.722 64.9672C204.722 64.9672 204.722 64.9671 204.722 64.9717C204.731 65.0168 204.736 65.0619 204.745 65.1025C204.754 65.1432 204.763 65.1883 204.772 65.2289C204.78 65.2695 204.789 65.3101 204.798 65.3507C204.807 65.3914 204.821 65.432 204.83 65.4726C204.843 65.5132 204.852 65.5538 204.866 65.5945C204.879 65.6351 204.892 65.6757 204.906 65.7118C204.906 65.7253 204.915 65.7344 204.919 65.7479L207.953 63.9698C207.863 63.7216 207.796 63.4598 207.756 63.1981C207.715 62.9318 207.698 62.661 207.702 62.3857C207.702 62.1195 207.729 61.8487 207.769 61.5734C207.769 61.5553 207.774 61.5373 207.778 61.5237C207.814 61.2755 207.868 61.0228 207.935 60.7746C207.948 60.7204 207.962 60.6708 207.975 60.6166C208.029 60.4226 208.091 60.2285 208.158 60.0299C208.185 59.9487 208.212 59.863 208.243 59.7817C208.275 59.6915 208.315 59.6012 208.351 59.511C208.449 59.2582 208.552 59.01 208.664 58.7618C208.713 58.6535 208.762 58.5497 208.816 58.4459C208.932 58.2022 209.058 57.963 209.183 57.7283C209.228 57.6426 209.272 57.5568 209.322 57.4711C209.496 57.1642 209.671 56.8618 209.85 56.5775C209.993 56.3519 210.131 56.1352 210.27 55.9276C210.306 55.878 210.337 55.8284 210.373 55.7787C210.48 55.6253 210.583 55.4718 210.686 55.3274C210.735 55.2552 210.785 55.192 210.834 55.1243C210.914 55.0115 210.999 54.8987 211.076 54.7949C211.125 54.7272 211.174 54.664 211.219 54.6053C211.29 54.5106 211.362 54.4203 211.424 54.3391C211.465 54.2849 211.51 54.2308 211.545 54.1856C211.608 54.1089 211.666 54.0367 211.72 53.969C211.751 53.9284 211.787 53.8878 211.814 53.8562C211.863 53.793 211.908 53.7388 211.948 53.6937C211.966 53.6757 211.988 53.6486 212.002 53.6305C212.046 53.5764 212.082 53.5358 212.1 53.5177C212.181 53.4004 212.252 53.2921 212.324 53.1883C212.346 53.1567 212.369 53.1251 212.391 53.098C212.44 53.0303 212.485 52.9671 212.534 52.9039C212.556 52.8724 212.579 52.8453 212.601 52.8182C212.646 52.7595 212.691 52.7009 212.735 52.6467C212.753 52.6241 212.767 52.6061 212.785 52.5835C212.838 52.5158 212.896 52.4481 212.946 52.3849C212.999 52.3218 213.049 52.2586 213.098 52.1999C213.116 52.1773 213.129 52.1593 213.147 52.1367C213.183 52.0916 213.219 52.0465 213.254 52.0013C213.272 51.9788 213.29 51.9562 213.304 51.9336C213.344 51.884 213.38 51.8299 213.42 51.7757C213.433 51.7576 213.442 51.7441 213.456 51.7306C213.505 51.6629 213.554 51.5861 213.603 51.5094C213.603 51.5094 213.608 51.5004 213.612 51.4959C213.617 51.4869 213.621 51.4778 213.63 51.4688C213.684 51.3831 213.738 51.2883 213.796 51.1845C213.809 51.1619 213.823 51.1394 213.836 51.1168C213.899 50.9995 213.961 50.8731 214.028 50.7332C214.033 50.7242 214.037 50.7151 214.042 50.7016C214.051 50.679 214.064 50.652 214.073 50.6294C214.118 50.5301 214.167 50.4263 214.212 50.3135C214.23 50.2729 214.248 50.2277 214.266 50.1871C214.333 50.0337 214.4 49.8667 214.471 49.6817C214.48 49.6546 214.494 49.623 214.503 49.5959C214.552 49.4696 214.592 49.3432 214.628 49.2123C214.641 49.1672 214.65 49.1175 214.664 49.0724C214.673 49.0453 214.677 49.0183 214.686 48.9867C214.695 48.9506 214.708 48.9145 214.713 48.8784C214.735 48.77 214.758 48.6662 214.776 48.5579C214.785 48.5083 214.789 48.4541 214.798 48.4C214.798 48.3774 214.802 48.3594 214.807 48.3368C214.807 48.3097 214.816 48.2826 214.82 48.2556C214.834 48.1608 214.843 48.0615 214.852 47.9667C214.861 47.881 214.865 47.7952 214.87 47.7095C214.87 47.7095 214.87 47.7005 214.87 47.696V47.6869L214.892 47.6644Z" fill="url(#paint16_linear_2018_2433)"/>
<path d="M206.565 34.1256L209.599 32.3475C209.925 32.158 210.207 32.0316 210.426 32L207.393 33.7781C207.174 33.8097 206.887 33.9361 206.565 34.1256Z" fill="url(#paint17_linear_2018_2433)"/>
<path d="M206.565 34.1249L209.599 32.3468C209.813 32.2205 210.01 32.1257 210.18 32.0625L207.147 33.8406C206.977 33.9038 206.78 33.9986 206.565 34.1249Z" fill="url(#paint18_linear_2018_2433)"/>
<path d="M207.147 33.842L210.18 32.0639C210.243 32.0414 210.306 32.0233 210.359 32.0098L207.326 33.7879C207.268 33.8014 207.21 33.8195 207.147 33.842Z" fill="url(#paint19_linear_2018_2433)"/>
<path d="M207.326 33.7917L210.36 32.0135C210.36 32.0135 210.404 32.0045 210.427 32L207.393 33.7781C207.393 33.7781 207.349 33.7871 207.326 33.7917Z" fill="url(#paint20_linear_2018_2433)"/>
<path d="M213.057 54.3175C213.124 54.4619 214.413 57.1697 214.046 59.4262C213.643 61.782 213.106 62.3596 212.136 63.3344C212.104 63.3164 207.831 68.3123 208.928 71.3811C208.713 71.1329 204.65 66.4574 207.456 60.7666C207.55 60.586 209.326 57.2013 213.053 54.313L213.057 54.3175Z" fill="url(#paint21_linear_2018_2433)"/>
<path d="M217.147 56.7587C217.147 56.7091 217.147 56.6549 217.147 56.6053C217.147 56.5285 217.142 56.4518 217.138 56.3751C217.138 56.3706 217.138 56.3661 217.138 56.3571C217.138 56.348 217.138 56.339 217.138 56.3255C217.138 56.2623 217.129 56.1991 217.124 56.1359C217.12 56.0682 217.111 56.0005 217.102 55.9373C217.102 55.9283 217.102 55.9193 217.102 55.9103C217.102 55.9057 217.102 55.9012 217.102 55.8922C217.093 55.8065 217.079 55.7162 217.066 55.6305C217.062 55.5989 217.053 55.5628 217.048 55.5312C217.044 55.4996 217.039 55.4725 217.035 55.4409C217.03 55.4093 217.026 55.3822 217.021 55.3507C217.003 55.2649 216.986 55.1792 216.968 55.0934C216.968 55.0844 216.968 55.0754 216.963 55.0663C216.963 55.0663 216.963 55.0618 216.963 55.0573C216.941 54.949 216.914 54.8452 216.892 54.7414C216.892 54.7279 216.883 54.7143 216.883 54.7008C216.869 54.6557 216.86 54.6105 216.847 54.5609C216.833 54.5067 216.82 54.4481 216.802 54.3984C216.798 54.3804 216.793 54.3623 216.784 54.3443C216.766 54.2766 216.744 54.2134 216.726 54.1502C216.713 54.1096 216.704 54.069 216.69 54.0283C216.686 54.0148 216.681 54.0013 216.677 53.9877C216.637 53.8569 216.592 53.7305 216.552 53.6177C216.552 53.6177 216.552 53.6132 216.552 53.6086C216.502 53.4642 216.453 53.3334 216.404 53.2115C216.399 53.198 216.395 53.1844 216.39 53.1709C216.381 53.1528 216.377 53.1393 216.373 53.1258C216.35 53.0761 216.332 53.0265 216.314 52.9813C216.301 52.9497 216.288 52.9182 216.279 52.8911C216.261 52.8459 216.243 52.8098 216.229 52.7737C216.22 52.7602 216.216 52.7376 216.207 52.7241C216.207 52.7196 216.207 52.7151 216.203 52.7106C216.194 52.688 216.185 52.6699 216.176 52.6519C216.149 52.5932 216.131 52.5526 216.122 52.5391L213.089 54.3172C213.089 54.3172 213.115 54.3713 213.138 54.4255C213.147 54.4481 213.156 54.4661 213.169 54.4932C213.178 54.5112 213.187 54.5338 213.196 54.5519C213.214 54.588 213.227 54.6286 213.25 54.6737C213.259 54.7008 213.272 54.7324 213.285 54.7595C213.303 54.8046 213.326 54.8542 213.344 54.9084C213.353 54.9355 213.366 54.967 213.379 54.9941C213.429 55.116 213.478 55.2469 213.527 55.3958C213.567 55.5131 213.612 55.6395 213.652 55.7704C213.67 55.82 213.684 55.8742 213.702 55.9283C213.724 55.996 213.742 56.0592 213.76 56.1269C213.778 56.1991 213.8 56.2713 213.818 56.3435C213.831 56.3932 213.845 56.4383 213.854 56.4879C213.885 56.6053 213.912 56.7271 213.939 56.849C213.939 56.858 213.939 56.867 213.943 56.876C213.965 56.9889 213.988 57.1062 214.01 57.2235C214.015 57.2551 214.019 57.2822 214.024 57.3138C214.046 57.4357 214.064 57.562 214.077 57.6884C214.077 57.6974 214.077 57.7064 214.077 57.7155C214.091 57.8463 214.104 57.9727 214.113 58.1036C214.113 58.1126 214.113 58.1261 214.113 58.1352C214.122 58.2706 214.127 58.4014 214.127 58.5368C214.127 58.5504 214.127 58.5639 214.127 58.5774C214.127 58.7083 214.122 58.8437 214.113 58.9746C214.113 58.9881 214.113 58.9971 214.113 59.0107C214.104 59.1506 214.086 59.2905 214.064 59.4259C214.064 59.4394 214.059 59.453 214.055 59.4665C214.01 59.7373 213.961 59.9855 213.907 60.2111C213.907 60.2111 213.907 60.2202 213.907 60.2247C213.867 60.4052 213.822 60.5722 213.778 60.7301C213.769 60.7617 213.76 60.7888 213.751 60.8204C213.71 60.9603 213.666 61.0957 213.621 61.222C213.612 61.2446 213.603 61.2627 213.599 61.2852C213.549 61.4116 213.5 61.5334 213.451 61.6463C213.451 61.6553 213.447 61.6598 213.442 61.6688C213.366 61.8313 213.285 61.9757 213.2 62.1156C213.2 62.1156 213.196 62.1246 213.191 62.1292C213.053 62.3458 212.905 62.5398 212.735 62.7294C212.726 62.7384 212.717 62.7474 212.713 62.7565C212.543 62.946 212.359 63.131 212.158 63.3386C212.158 63.3386 212.136 63.3567 212.109 63.3883C212.1 63.3973 212.086 63.4108 212.077 63.4244C212.051 63.4515 212.024 63.4876 211.988 63.5282C211.97 63.5507 211.948 63.5778 211.925 63.6049C211.885 63.65 211.845 63.6997 211.8 63.7583C211.773 63.7944 211.742 63.8306 211.711 63.8712C211.661 63.9344 211.612 63.9975 211.558 64.0697C211.523 64.1149 211.487 64.1645 211.451 64.2142C211.393 64.2909 211.33 64.3766 211.268 64.4624C211.232 64.512 211.196 64.5617 211.156 64.6158C211.08 64.7241 210.999 64.8415 210.919 64.9588C210.892 64.9994 210.865 65.0355 210.838 65.0807C210.731 65.2386 210.623 65.4011 210.516 65.5726C210.516 65.5771 210.512 65.5816 210.507 65.5861C210.364 65.8163 210.221 66.0555 210.082 66.3037C210.042 66.3714 210.006 66.4391 209.97 66.5068C209.863 66.7008 209.764 66.8994 209.666 67.1025C209.639 67.1521 209.612 67.2018 209.59 67.2514C209.576 67.2785 209.567 67.3101 209.554 67.3371C209.442 67.5808 209.335 67.8291 209.241 68.0818C209.236 68.0998 209.227 68.1179 209.219 68.1314C209.219 68.1314 209.219 68.1359 209.219 68.1405C209.21 68.1675 209.201 68.1946 209.192 68.2217C209.133 68.3842 209.08 68.5466 209.031 68.7091C209.022 68.7362 209.017 68.7587 209.013 68.7858C209.004 68.8219 208.995 68.858 208.986 68.8896C208.968 68.9618 208.946 69.0385 208.928 69.1107C208.901 69.2191 208.878 69.3274 208.861 69.4357C208.861 69.4492 208.861 69.4673 208.852 69.4808C208.852 69.4944 208.852 69.5034 208.847 69.5169C208.838 69.5711 208.829 69.6252 208.825 69.6794C208.816 69.7561 208.807 69.8328 208.802 69.9095C208.802 69.9637 208.793 70.0179 208.793 70.0675C208.793 70.0901 208.793 70.1171 208.793 70.1397C208.793 70.1442 208.793 70.1532 208.793 70.1578C208.793 70.1803 208.793 70.2029 208.793 70.2209C208.793 70.2751 208.793 70.3247 208.793 70.3789C208.793 70.4195 208.793 70.4556 208.798 70.4962C208.798 70.5323 208.802 70.5684 208.807 70.6045C208.807 70.6406 208.816 70.6768 208.82 70.7129C208.82 70.7354 208.825 70.7535 208.829 70.776C208.829 70.776 208.829 70.7806 208.829 70.7851C208.829 70.7986 208.829 70.8076 208.834 70.8212C208.838 70.8573 208.843 70.8889 208.852 70.925C208.856 70.9566 208.865 70.9836 208.87 71.0152C208.874 71.0468 208.883 71.0739 208.892 71.1055C208.901 71.1371 208.905 71.1642 208.914 71.1957C208.923 71.2273 208.932 71.2544 208.941 71.2815C208.95 71.3086 208.959 71.3402 208.968 71.3672C208.968 71.3672 208.968 71.3763 208.968 71.3808L211.438 69.9321C211.755 69.7471 211.912 69.3815 211.863 69.016C211.863 69.016 211.863 69.016 211.863 69.0115C211.863 69.0115 211.863 69.007 211.863 69.0024C211.836 68.8039 211.827 68.5963 211.831 68.3842C211.831 68.3796 211.831 68.3706 211.831 68.3661C211.836 68.1585 211.858 67.9509 211.894 67.7388C211.894 67.7298 211.894 67.7162 211.898 67.7072C211.93 67.5086 211.975 67.3146 212.028 67.1115C212.037 67.0754 212.046 67.0393 212.055 67.0077C212.109 66.8227 212.167 66.6331 212.234 66.4436C212.243 66.4165 212.252 66.3894 212.261 66.3623C212.27 66.3398 212.279 66.3217 212.288 66.2992C212.382 66.0509 212.489 65.8027 212.601 65.559C212.637 65.4778 212.677 65.4011 212.713 65.3244C212.811 65.1213 212.914 64.9227 213.017 64.7286C213.053 64.6609 213.089 64.5933 213.129 64.5256C213.268 64.2773 213.411 64.0336 213.558 63.8035C213.67 63.6275 213.778 63.4605 213.885 63.298C213.916 63.2529 213.943 63.2123 213.974 63.1671C214.055 63.0543 214.131 62.937 214.207 62.8332C214.247 62.7745 214.288 62.7249 214.323 62.6707C214.386 62.585 214.444 62.5037 214.502 62.427C214.543 62.3774 214.578 62.3277 214.614 62.2781C214.668 62.2104 214.717 62.1427 214.762 62.084C214.793 62.0434 214.825 62.0028 214.851 61.9712C214.896 61.9125 214.936 61.8629 214.977 61.8178C214.999 61.7907 215.021 61.7636 215.039 61.741C215.075 61.7004 215.106 61.6643 215.129 61.6372C215.138 61.6237 215.156 61.6102 215.16 61.6011C215.187 61.5695 215.209 61.5515 215.209 61.5515C215.411 61.3484 215.594 61.1589 215.764 60.9693C215.773 60.9603 215.782 60.9513 215.786 60.9422C215.952 60.7527 216.104 60.5586 216.243 60.342C216.243 60.342 216.243 60.342 216.247 60.3375C216.247 60.3375 216.247 60.3375 216.247 60.333C216.332 60.1976 216.413 60.0487 216.489 59.8862C216.489 59.8862 216.489 59.8862 216.489 59.8817C216.489 59.8772 216.493 59.8682 216.498 59.8636C216.552 59.7508 216.601 59.6335 216.645 59.5071C216.65 59.4936 216.659 59.48 216.663 59.4665C216.663 59.4575 216.668 59.4484 216.672 59.4439C216.717 59.3176 216.762 59.1867 216.802 59.0468C216.802 59.0332 216.811 59.0242 216.815 59.0107C216.82 58.9926 216.824 58.9746 216.829 58.9565C216.874 58.7986 216.918 58.6316 216.959 58.4511C216.959 58.4511 216.959 58.4466 216.959 58.442C217.008 58.2164 217.057 57.9682 217.106 57.7019C217.106 57.6929 217.106 57.6884 217.106 57.6794C217.106 57.6703 217.106 57.6613 217.106 57.6568C217.115 57.5936 217.124 57.5304 217.133 57.4672C217.142 57.3995 217.147 57.3364 217.151 57.2687C217.151 57.2596 217.151 57.2506 217.151 57.2416C217.151 57.2281 217.151 57.219 217.151 57.2055C217.151 57.1559 217.16 57.1062 217.16 57.0566C217.16 56.9844 217.164 56.9121 217.164 56.8399C217.164 56.8309 217.164 56.8219 217.164 56.8129C217.164 56.7993 217.164 56.7858 217.164 56.7722L217.147 56.7587Z" fill="url(#paint22_linear_2018_2433)"/>
<path d="M192.727 87.1086V88.4264H185V77.9473H192.481V79.2651H186.539V82.4828H191.841V83.751H186.539V87.1131H192.731L192.727 87.1086Z" fill="white"/>
<path d="M200.006 88.4274L197.68 85.4037L195.353 88.4274H193.72L196.892 84.3838L193.872 80.5342H195.505L197.733 83.3593L199.912 80.5342H201.496L198.476 84.3838L201.698 88.4274H200.015H200.006Z" fill="white"/>
<path d="M203.522 88.2327C202.927 88.0386 202.431 87.8446 202.086 87.5512L202.681 86.432C203.026 86.6757 203.473 86.8698 203.97 87.0187C204.466 87.1631 204.959 87.2624 205.504 87.2624C206.793 87.2624 207.437 86.9194 207.437 86.1883C207.437 85.9446 207.339 85.7505 207.191 85.6016C207.043 85.4572 206.793 85.3579 206.547 85.3083C206.301 85.2586 205.903 85.1639 205.455 85.1142C204.811 85.0149 204.265 84.9202 203.871 84.7712C203.473 84.6268 203.129 84.4282 202.833 84.1394C202.538 83.8461 202.386 83.4083 202.386 82.8216C202.386 82.0905 202.681 81.5535 203.276 81.1157C203.871 80.6779 204.712 80.4839 205.701 80.4839C206.247 80.4839 206.793 80.5335 207.285 80.6779C207.831 80.8224 208.274 80.9713 208.623 81.215L207.979 82.3342C207.334 81.8965 206.542 81.7024 205.652 81.7024C205.057 81.7024 204.56 81.8017 204.265 81.9957C203.921 82.1898 203.768 82.4335 203.768 82.7765C203.768 83.0202 203.867 83.2142 204.064 83.4083C204.261 83.6024 204.462 83.652 204.757 83.7513C205.003 83.8009 205.401 83.8957 205.898 83.995C206.542 84.0943 207.088 84.2387 207.482 84.338C207.88 84.4824 208.225 84.681 208.52 84.9698C208.815 85.2631 208.967 85.7009 208.967 86.2379C208.967 86.969 208.672 87.5061 208.028 87.9439C207.383 88.3816 206.542 88.5757 205.5 88.5757C204.757 88.4764 204.162 88.4313 203.518 88.2327H203.522Z" fill="white"/>
<path d="M211.943 87.9895C211.299 87.6465 210.802 87.1591 210.457 86.5273C210.113 85.8955 209.912 85.2095 209.912 84.4333C209.912 83.657 210.108 82.9711 210.457 82.3393C210.802 81.7074 211.299 81.2652 211.943 80.9267C212.587 80.5837 213.281 80.3896 214.073 80.3896C214.864 80.3896 215.607 80.5837 216.202 80.9267C216.846 81.2697 217.343 81.7571 217.688 82.3393C218.032 82.9711 218.233 83.657 218.233 84.4333C218.233 85.2095 218.037 85.8955 217.688 86.5273C217.343 87.1591 216.846 87.6014 216.202 87.9895C215.558 88.3325 214.864 88.5266 214.073 88.5266C213.281 88.4769 212.587 88.3325 211.943 87.9895ZM215.459 86.9154C215.858 86.6717 216.202 86.3287 216.399 85.9406C216.645 85.5029 216.744 85.0155 216.744 84.4784C216.744 83.9414 216.645 83.454 216.399 83.0162C216.153 82.5784 215.853 82.2851 215.459 82.0414C215.061 81.7977 214.569 81.6984 214.073 81.6984C213.576 81.6984 213.084 81.7977 212.686 82.0414C212.287 82.2851 211.943 82.5784 211.697 83.0162C211.451 83.454 211.352 83.9414 211.352 84.4784C211.352 85.0155 211.451 85.5029 211.697 85.9406C211.943 86.3784 212.243 86.6717 212.686 86.9154C213.084 87.1591 213.576 87.2584 214.073 87.2584C214.569 87.2584 215.061 87.114 215.459 86.9154Z" fill="white"/>
<path d="M221.302 79.7971V80.4785H223.629V81.6474H221.302V88.3763H219.866V81.697H218.479V80.5282H219.866V79.8467C219.866 79.066 220.112 78.4342 220.56 77.9964C221.007 77.5586 221.701 77.3149 222.492 77.3149C222.837 77.3149 223.137 77.3646 223.383 77.4142C223.678 77.5135 223.929 77.6083 224.126 77.7572L223.678 78.8313C223.334 78.5876 222.985 78.4432 222.537 78.4432C221.745 78.4432 221.298 78.8809 221.298 79.8061L221.302 79.7971Z" fill="white"/>
<path d="M229.969 87.9397C229.773 88.1337 229.473 88.233 229.178 88.3278C228.882 88.4271 228.533 88.4722 228.189 88.4722C227.397 88.4722 226.753 88.2782 226.305 87.8404C225.858 87.4026 225.661 86.816 225.661 85.9901V81.6531H224.274V80.4842H225.661V78.7783H227.097V80.4842H229.424V81.6531H227.097V85.9404C227.097 86.3782 227.196 86.7212 227.442 86.9152C227.638 87.1589 227.987 87.2582 228.381 87.2582C228.829 87.2582 229.222 87.1138 229.522 86.8701L229.969 87.9442V87.9397Z" fill="white"/>
</g>
<defs>
<linearGradient id="paint0_linear_2018_2433" x1="3.77856e-07" y1="60.0001" x2="414" y2="60.0001" gradientUnits="userSpaceOnUse">
<stop stop-color="#495A72"/>
<stop offset="0.523958" stop-color="#10284A"/>
<stop offset="1" stop-color="#495A72"/>
</linearGradient>
<linearGradient id="paint1_linear_2018_2433" x1="25.2848" y1="-9.42752" x2="148.378" y2="96.8443" gradientUnits="userSpaceOnUse">
<stop offset="0.04" stop-color="#00FCFE"/>
<stop offset="0.09" stop-color="#0FD4F7"/>
<stop offset="0.13" stop-color="#1CB2F2"/>
<stop offset="0.18" stop-color="#2796ED"/>
<stop offset="0.23" stop-color="#2F80E9"/>
<stop offset="0.28" stop-color="#3570E7"/>
<stop offset="0.35" stop-color="#3867E5"/>
<stop offset="0.44" stop-color="#3A65E5"/>
<stop offset="1" stop-color="#3751DC"/>
</linearGradient>
<linearGradient id="paint2_linear_2018_2433" x1="-302.919" y1="290.262" x2="-380.313" y2="334.56" gradientUnits="userSpaceOnUse">
<stop stop-color="#292ACD"/>
<stop offset="1" stop-color="#3272F3"/>
</linearGradient>
<linearGradient id="paint3_linear_2018_2433" x1="-47.9158" y1="23.403" x2="54.0263" y2="81.2252" gradientUnits="userSpaceOnUse">
<stop stop-color="#00FFFF"/>
<stop offset="0.06" stop-color="#0ADEF8"/>
<stop offset="0.15" stop-color="#16B8F0"/>
<stop offset="0.25" stop-color="#2098E9"/>
<stop offset="0.35" stop-color="#287DE4"/>
<stop offset="0.47" stop-color="#2F69E0"/>
<stop offset="0.59" stop-color="#335ADD"/>
<stop offset="0.75" stop-color="#3652DB"/>
<stop offset="1" stop-color="#3750DB"/>
</linearGradient>
<linearGradient id="paint4_linear_2018_2433" x1="87.4128" y1="63.9114" x2="138.247" y2="119.842" gradientUnits="userSpaceOnUse">
<stop offset="0.04" stop-color="#7E98E0"/>
<stop offset="0.425162" stop-color="#3362EF"/>
<stop offset="1" stop-color="#1E4983"/>
</linearGradient>
<linearGradient id="paint5_linear_2018_2433" x1="-242.625" y1="332.84" x2="-285.099" y2="357.151" gradientUnits="userSpaceOnUse">
<stop stop-color="#292ACD"/>
<stop offset="1" stop-color="#3272F3"/>
</linearGradient>
<linearGradient id="paint6_linear_2018_2433" x1="59.7885" y1="91.7896" x2="115.736" y2="123.523" gradientUnits="userSpaceOnUse">
<stop stop-color="#00FFFF"/>
<stop offset="0.06" stop-color="#0ADEF8"/>
<stop offset="0.15" stop-color="#16B8F0"/>
<stop offset="0.25" stop-color="#2098E9"/>
<stop offset="0.35" stop-color="#287DE4"/>
<stop offset="0.47" stop-color="#2F69E0"/>
<stop offset="0.59" stop-color="#335ADD"/>
<stop offset="0.75" stop-color="#3652DB"/>
<stop offset="1" stop-color="#3750DB"/>
</linearGradient>
<linearGradient id="paint7_linear_2018_2433" x1="294.88" y1="-23.1425" x2="342.479" y2="47.9725" gradientUnits="userSpaceOnUse">
<stop offset="0.04" stop-color="#00FCFE"/>
<stop offset="0.09" stop-color="#0FD4F7"/>
<stop offset="0.13" stop-color="#1CB2F2"/>
<stop offset="0.18" stop-color="#2796ED"/>
<stop offset="0.23" stop-color="#2F80E9"/>
<stop offset="0.28" stop-color="#3570E7"/>
<stop offset="0.35" stop-color="#3867E5"/>
<stop offset="0.44" stop-color="#3A65E5"/>
<stop offset="1" stop-color="#3751DC"/>
</linearGradient>
<linearGradient id="paint8_linear_2018_2433" x1="-13.98" y1="235.085" x2="-69.8522" y2="267.064" gradientUnits="userSpaceOnUse">
<stop stop-color="#292ACD"/>
<stop offset="1" stop-color="#3272F3"/>
</linearGradient>
<linearGradient id="paint9_linear_2018_2433" x1="242.037" y1="0.55987" x2="315.63" y2="42.3017" gradientUnits="userSpaceOnUse">
<stop stop-color="#00FFFF"/>
<stop offset="0.06" stop-color="#0ADEF8"/>
<stop offset="0.15" stop-color="#16B8F0"/>
<stop offset="0.25" stop-color="#2098E9"/>
<stop offset="0.35" stop-color="#287DE4"/>
<stop offset="0.47" stop-color="#2F69E0"/>
<stop offset="0.59" stop-color="#335ADD"/>
<stop offset="0.75" stop-color="#3652DB"/>
<stop offset="1" stop-color="#3750DB"/>
</linearGradient>
<linearGradient id="paint10_linear_2018_2433" x1="341.999" y1="9.85967" x2="436.627" y2="113.972" gradientUnits="userSpaceOnUse">
<stop offset="0.04" stop-color="#7E98E0"/>
<stop offset="0.425162" stop-color="#3362EF"/>
<stop offset="1" stop-color="#1E4983"/>
</linearGradient>
<linearGradient id="paint11_linear_2018_2433" x1="141.51" y1="269.479" x2="62.4418" y2="314.736" gradientUnits="userSpaceOnUse">
<stop stop-color="#292ACD"/>
<stop offset="1" stop-color="#3272F3"/>
</linearGradient>
<linearGradient id="paint12_linear_2018_2433" x1="290.579" y1="61.7497" x2="394.724" y2="120.824" gradientUnits="userSpaceOnUse">
<stop stop-color="#00FFFF"/>
<stop offset="0.06" stop-color="#0ADEF8"/>
<stop offset="0.15" stop-color="#16B8F0"/>
<stop offset="0.25" stop-color="#2098E9"/>
<stop offset="0.35" stop-color="#287DE4"/>
<stop offset="0.47" stop-color="#2F69E0"/>
<stop offset="0.59" stop-color="#335ADD"/>
<stop offset="0.75" stop-color="#3652DB"/>
<stop offset="1" stop-color="#3750DB"/>
</linearGradient>
<linearGradient id="paint13_linear_2018_2433" x1="199.071" y1="37.2132" x2="213.399" y2="63.3838" gradientUnits="userSpaceOnUse">
<stop offset="0.04" stop-color="#00EEFF"/>
<stop offset="0.08" stop-color="#0CD9F9"/>
<stop offset="0.13" stop-color="#1CBDF2"/>
<stop offset="0.19" stop-color="#29A7EC"/>
<stop offset="0.26" stop-color="#3297E8"/>
<stop offset="0.33" stop-color="#388EE5"/>
<stop offset="0.44" stop-color="#3A8CE5"/>
<stop offset="1" stop-color="#1B3B71"/>
</linearGradient>
<linearGradient id="paint14_linear_2018_2433" x1="199.925" y1="45.038" x2="211.683" y2="45.038" gradientUnits="userSpaceOnUse">
<stop stop-color="#293FCD"/>
<stop offset="1" stop-color="#329FF3"/>
</linearGradient>
<linearGradient id="paint15_linear_2018_2433" x1="198.301" y1="37.6376" x2="212.629" y2="63.8036" gradientUnits="userSpaceOnUse">
<stop offset="0.04" stop-color="#00EEFF"/>
<stop offset="0.08" stop-color="#0CD9F9"/>
<stop offset="0.13" stop-color="#1CBDF2"/>
<stop offset="0.19" stop-color="#29A7EC"/>
<stop offset="0.26" stop-color="#3297E8"/>
<stop offset="0.33" stop-color="#388EE5"/>
<stop offset="0.44" stop-color="#3A8CE5"/>
<stop offset="1" stop-color="#376BDC"/>
</linearGradient>
<linearGradient id="paint16_linear_2018_2433" x1="204.687" y1="53.7614" x2="214.896" y2="53.7614" gradientUnits="userSpaceOnUse">
<stop stop-color="#293FCD"/>
<stop offset="1" stop-color="#329FF3"/>
</linearGradient>
<linearGradient id="paint17_linear_2018_2433" x1="206.565" y1="33.0606" x2="210.426" y2="33.0606" gradientUnits="userSpaceOnUse">
<stop stop-color="#293FCD"/>
<stop offset="1" stop-color="#329FF3"/>
</linearGradient>
<linearGradient id="paint18_linear_2018_2433" x1="206.565" y1="33.0915" x2="210.18" y2="33.0915" gradientUnits="userSpaceOnUse">
<stop stop-color="#293FCD"/>
<stop offset="1" stop-color="#329FF3"/>
</linearGradient>
<linearGradient id="paint19_linear_2018_2433" x1="207.147" y1="32.9259" x2="210.364" y2="32.9259" gradientUnits="userSpaceOnUse">
<stop stop-color="#293FCD"/>
<stop offset="1" stop-color="#329FF3"/>
</linearGradient>
<linearGradient id="paint20_linear_2018_2433" x1="207.326" y1="32.8936" x2="210.427" y2="32.8936" gradientUnits="userSpaceOnUse">
<stop stop-color="#293FCD"/>
<stop offset="1" stop-color="#329FF3"/>
</linearGradient>
<linearGradient id="paint21_linear_2018_2433" x1="197.532" y1="38.0572" x2="211.86" y2="64.2278" gradientUnits="userSpaceOnUse">
<stop offset="0.04" stop-color="#00EEFF"/>
<stop offset="0.08" stop-color="#0CD9F9"/>
<stop offset="0.13" stop-color="#1CBDF2"/>
<stop offset="0.19" stop-color="#29A7EC"/>
<stop offset="0.26" stop-color="#3297E8"/>
<stop offset="0.33" stop-color="#388EE5"/>
<stop offset="0.44" stop-color="#3A8CE5"/>
<stop offset="1" stop-color="#376BDC"/>
</linearGradient>
<linearGradient id="paint22_linear_2018_2433" x1="208.749" y1="61.9622" x2="217.147" y2="61.9622" gradientUnits="userSpaceOnUse">
<stop stop-color="#293FCD"/>
<stop offset="1" stop-color="#329FF3"/>
</linearGradient>
<clipPath id="clip0_2018_2433">
<rect width="414" height="120" fill="white"/>
</clipPath>
</defs>
</svg>
