<svg width="100%" height="100%" viewBox="0 0 1440 200" fill="none" xmlns="http://www.w3.org/2000/svg">
<g clip-path="url(#clip0_1976_1353)">
<rect width="1440" height="200" fill="url(#paint0_linear_1976_1353)"/>
<path opacity="0.6" d="M709.39 -23.15L384.4 160.68" stroke="white" stroke-miterlimit="10"/>
<path opacity="0.6" d="M1056.8 47.34L895.43 138.63L1022.36 211.2" stroke="white" stroke-miterlimit="10"/>
<path opacity="0.3" d="M118.76 108.24L248.95 183.4L379.15 108.24L248.95 33.0701L118.76 108.24Z" fill="#839EDE"/>
<path opacity="0.3" d="M927.43 95.18L1057.63 170.35L1187.82 95.18L1057.63 20.02L927.43 95.18Z" fill="#839EDE"/>
<path opacity="0.3" d="M1125.12 198.26L1390.59 351.53L1656.06 198.26L1390.59 44.99L1125.12 198.26Z" fill="#839EDE"/>
<path opacity="0.3" d="M-42.46 111.34L62.46 171.91L167.38 111.34L62.46 50.76L-42.46 111.34Z" fill="#839EDE"/>
<path opacity="0.6" d="M1085.02 -10.1001L1315.83 124.67L1110.21 243.48H417.11L299.15 182.25L464.85 92.9799L269.56 -28.1801L42.8101 99.9999L325.21 259.56" stroke="white" stroke-miterlimit="10"/>
<path d="M54.79 -6.62001L244.25 102.77L433.72 -6.62001L244.25 -116.01L54.79 -6.62001Z" fill="url(#paint1_linear_1976_1353)"/>
<path d="M244.25 118.85L433.72 9.46001V-6.62L244.25 102.77V118.85Z" fill="url(#paint2_linear_1976_1353)"/>
<path d="M54.79 9.46001L244.25 118.85V102.77L54.79 -6.62V9.46001Z" fill="url(#paint3_linear_1976_1353)"/>
<path d="M292 148.14L395.98 208.17L499.97 148.14L395.98 88.1L292 148.14Z" fill="url(#paint4_linear_1976_1353)"/>
<path d="M395.98 217L499.97 156.96V148.14L395.98 208.17V217Z" fill="url(#paint5_linear_1976_1353)"/>
<path d="M292 156.96L395.98 217V208.17L292 148.14V156.96Z" fill="url(#paint6_linear_1976_1353)"/>
<path d="M929.18 42.33L1053.52 114.12L1177.86 42.33L1053.52 -29.46L929.18 42.33Z" fill="url(#paint7_linear_1976_1353)"/>
<path d="M1053.52 124.67L1177.86 52.8801V42.3301L1053.52 114.12V124.67Z" fill="url(#paint8_linear_1976_1353)"/>
<path d="M929.18 52.8801L1053.52 124.67V114.12L929.18 42.3301V52.8801Z" fill="url(#paint9_linear_1976_1353)"/>
<path opacity="0.6" d="M1151.71 -25.24L1476.7 158.59" stroke="white" stroke-miterlimit="10"/>
<path opacity="0.6" d="M-86.7 109.5L238.28 293.33" stroke="white" stroke-miterlimit="10"/>
<path opacity="0.6" d="M1005.95 -28.54L830.13 70.92L1115.56 234.1" stroke="white" stroke-miterlimit="10"/>
<path d="M1138.89 134.57L1314.85 236.16L1490.8 134.57L1314.85 32.98L1138.89 134.57Z" fill="url(#paint10_linear_1976_1353)"/>
<path d="M1314.85 251.09L1490.8 149.5V134.57L1314.85 236.16V251.09Z" fill="url(#paint11_linear_1976_1353)"/>
<path d="M1138.89 149.5L1314.85 251.09V236.16L1138.89 134.57V149.5Z" fill="url(#paint12_linear_1976_1353)"/>
<rect x="-56" width="1496" height="200" fill="#132642" fill-opacity="0.3"/>
<path d="M720.05 40.9399C720.3 41.4399 725.14 50.9599 721.52 58.3699C721.31 58.6999 717.26 65.0599 711.48 70.6099C711.4 70.5599 701.13 82.4799 703.81 94.7899C703.19 93.5599 691.41 70.1399 705.69 52.4699C706.24 51.9199 716.59 41.4599 720.04 40.9399H720.05Z" fill="url(#paint13_linear_1976_1353)"/>
<path d="M729.63 48.57C729.63 48.47 729.63 48.36 729.63 48.26C729.63 48.04 729.63 47.83 729.63 47.61C729.63 47.5 729.62 47.39 729.61 47.28C729.61 47.23 729.61 47.19 729.61 47.14C729.61 47.08 729.61 47.02 729.61 46.96C729.6 46.74 729.58 46.52 729.56 46.3C729.55 46.15 729.53 46.01 729.51 45.87C729.51 45.83 729.51 45.78 729.5 45.74C729.5 45.7 729.5 45.66 729.49 45.62C729.46 45.39 729.43 45.16 729.39 44.93C729.37 44.79 729.34 44.66 729.32 44.52C729.32 44.47 729.3 44.41 729.29 44.36C729.29 44.31 729.27 44.27 729.27 44.22C729.22 43.96 729.17 43.71 729.12 43.46C729.1 43.38 729.08 43.3 729.06 43.23C729.04 43.15 729.02 43.07 729 42.99C728.98 42.89 728.95 42.78 728.93 42.68C728.87 42.44 728.81 42.21 728.74 41.99C728.74 41.96 728.72 41.92 728.71 41.89C728.71 41.89 728.71 41.87 728.71 41.86C728.62 41.55 728.53 41.26 728.44 40.97C728.43 40.93 728.42 40.9 728.41 40.87C728.36 40.72 728.32 40.59 728.27 40.45C728.22 40.31 728.17 40.15 728.12 40.01C728.1 39.97 728.09 39.93 728.08 39.89C728 39.65 727.91 39.44 727.83 39.23C727.8 39.15 727.77 39.06 727.74 38.99C727.74 38.97 727.72 38.95 727.71 38.93C727.69 38.87 727.66 38.82 727.64 38.76C727.57 38.58 727.49 38.41 727.43 38.25C727.4 38.18 727.38 38.12 727.35 38.06C727.33 38.01 727.31 37.96 727.29 37.91C727.26 37.85 727.25 37.82 727.22 37.77C727.15 37.62 727.09 37.49 727.04 37.38C727.01 37.32 726.99 37.28 726.97 37.24C726.91 37.12 726.87 37.04 726.85 37L720.07 40.94C720.07 40.94 720.14 41.07 720.19 41.18C720.21 41.22 720.23 41.27 720.25 41.31C720.3 41.42 720.37 41.56 720.43 41.71C720.47 41.8 720.51 41.89 720.56 42C720.59 42.06 720.61 42.12 720.64 42.19C720.71 42.35 720.78 42.52 720.85 42.7C720.87 42.76 720.9 42.81 720.92 42.87C720.96 42.96 721 43.07 721.04 43.17C721.12 43.38 721.2 43.6 721.29 43.83C721.35 44.01 721.42 44.2 721.48 44.39C721.53 44.53 721.57 44.66 721.62 44.8C721.72 45.13 721.83 45.46 721.93 45.82C721.93 45.85 721.95 45.89 721.96 45.92C722.05 46.24 722.14 46.58 722.22 46.92C722.24 47 722.26 47.08 722.28 47.16C722.36 47.53 722.44 47.9 722.51 48.29C722.51 48.34 722.53 48.4 722.54 48.45C722.61 48.85 722.67 49.26 722.72 49.67C722.72 49.71 722.72 49.76 722.73 49.8C722.78 50.22 722.82 50.64 722.84 51.07C722.84 51.12 722.84 51.16 722.84 51.21C722.86 51.64 722.87 52.07 722.86 52.5C722.86 52.55 722.86 52.6 722.86 52.64C722.85 53.08 722.82 53.52 722.77 53.96C722.77 54 722.77 54.04 722.76 54.07C722.71 54.52 722.63 54.97 722.54 55.41C722.54 55.45 722.53 55.48 722.52 55.52C722.43 55.95 722.3 56.37 722.17 56.79C722.14 56.87 722.12 56.95 722.09 57.02C721.93 57.47 721.76 57.91 721.54 58.34C721.33 58.67 717.28 65.03 711.5 70.58C711.5 70.58 711.45 70.62 711.39 70.69C711.37 70.71 711.36 70.73 711.34 70.75C711.27 70.82 711.19 70.92 711.09 71.04C711.07 71.07 711.05 71.08 711.03 71.11C710.9 71.27 710.75 71.45 710.59 71.67C710.55 71.72 710.51 71.78 710.47 71.83C710.33 72.02 710.17 72.23 710.01 72.46C709.96 72.53 709.91 72.6 709.86 72.67C709.65 72.97 709.43 73.28 709.2 73.63C709.16 73.69 709.12 73.75 709.08 73.81C708.95 74.01 708.82 74.21 708.68 74.43C708.64 74.49 708.6 74.56 708.57 74.62C708.25 75.13 707.92 75.67 707.59 76.26C707.57 76.3 707.54 76.34 707.52 76.38C707.17 77 706.83 77.67 706.49 78.37C706.45 78.45 706.41 78.52 706.37 78.61C706.32 78.71 706.29 78.82 706.24 78.91C705.9 79.63 705.58 80.39 705.28 81.18C705.24 81.27 705.2 81.36 705.17 81.45C705.16 81.48 705.15 81.52 705.13 81.56C704.98 81.98 704.84 82.41 704.7 82.85C704.62 83.09 704.54 83.31 704.47 83.55C704.47 83.57 704.46 83.6 704.45 83.62C704.42 83.73 704.39 83.85 704.36 83.96C704.25 84.37 704.13 84.77 704.04 85.19C704.01 85.32 703.99 85.45 703.96 85.58C703.93 85.72 703.9 85.86 703.87 86C703.83 86.18 703.79 86.36 703.76 86.54C703.69 86.93 703.63 87.32 703.58 87.72C703.58 87.78 703.57 87.83 703.56 87.89C703.56 87.95 703.55 88 703.54 88.06C703.52 88.27 703.49 88.48 703.47 88.7C703.44 89 703.43 89.3 703.41 89.6C703.41 89.78 703.4 89.95 703.4 90.13C703.4 90.16 703.4 90.2 703.4 90.23C703.4 90.28 703.4 90.33 703.4 90.38C703.4 90.64 703.4 90.9 703.4 91.16C703.4 91.38 703.42 91.59 703.43 91.81C703.44 92.03 703.46 92.24 703.48 92.46C703.5 92.67 703.52 92.87 703.55 93.08C703.57 93.27 703.6 93.46 703.63 93.65C703.66 93.84 703.69 94.03 703.73 94.22C703.76 94.4 703.8 94.58 703.84 94.76L710.62 90.82C710.45 90.05 710.34 89.28 710.26 88.52C710.19 87.77 710.16 87.03 710.17 86.29C710.17 86.26 710.17 86.22 710.17 86.19C710.18 85.49 710.23 84.8 710.31 84.12C710.31 84.06 710.32 84.01 710.33 83.95C710.41 83.31 710.51 82.68 710.63 82.06C710.66 81.92 710.69 81.78 710.71 81.64C710.83 81.09 710.96 80.56 711.11 80.03C711.14 79.92 711.17 79.8 711.2 79.69C711.28 79.43 711.37 79.18 711.45 78.92C711.59 78.49 711.73 78.05 711.88 77.63C711.93 77.5 711.98 77.38 712.03 77.25C712.33 76.46 712.65 75.71 712.99 74.99C713.07 74.81 713.16 74.62 713.24 74.44C713.58 73.75 713.92 73.07 714.27 72.45C714.29 72.41 714.31 72.37 714.34 72.33C714.67 71.74 715 71.19 715.32 70.68C715.49 70.4 715.67 70.13 715.84 69.87C715.88 69.81 715.92 69.75 715.96 69.69C716.19 69.34 716.41 69.02 716.62 68.73C716.67 68.65 716.72 68.59 716.78 68.51C716.94 68.29 717.1 68.08 717.24 67.89C717.28 67.84 717.33 67.78 717.37 67.72C717.54 67.51 717.69 67.32 717.81 67.16C717.84 67.13 717.85 67.11 717.88 67.08C717.98 66.96 718.06 66.87 718.12 66.79C718.14 66.77 718.16 66.74 718.18 66.73C718.24 66.66 718.29 66.62 718.29 66.62C724.07 61.07 728.11 54.71 728.33 54.38C728.35 54.34 728.37 54.3 728.38 54.27C728.54 53.94 728.68 53.6 728.8 53.26C728.82 53.19 728.84 53.12 728.87 53.06C728.9 52.98 728.92 52.9 728.95 52.83C728.99 52.69 729.04 52.56 729.09 52.42C729.17 52.16 729.23 51.9 729.29 51.64C729.29 51.61 729.29 51.59 729.31 51.56C729.31 51.52 729.32 51.49 729.33 51.45C729.37 51.27 729.41 51.08 729.44 50.9C729.48 50.67 729.51 50.44 729.54 50.21C729.54 50.18 729.54 50.14 729.55 50.11C729.55 50.07 729.55 50.04 729.56 50C729.58 49.84 729.6 49.69 729.61 49.53C729.63 49.31 729.64 49.09 729.65 48.87C729.65 48.8 729.65 48.74 729.65 48.67C729.65 48.62 729.65 48.57 729.65 48.53L729.63 48.57Z" fill="url(#paint14_linear_1976_1353)"/>
<path d="M726.54 62.63C726.82 63.12 732.11 72.48 729.13 80.08C727.04 85.42 726.24 84.96 723.83 88.58C723.2 89.29 711.31 102.87 714.56 111.75C713.94 111.04 702.13 97.57 710.25 81.18C710.52 80.67 715.72 70.98 726.54 62.61V62.63Z" fill="url(#paint15_linear_1976_1353)"/>
<path d="M736.81 71.71C736.81 71.5 736.82 71.3 736.82 71.09C736.82 70.88 736.82 70.6799 736.82 70.4799C736.82 70.4299 736.82 70.37 736.82 70.32C736.82 70.28 736.82 70.24 736.82 70.2C736.82 70.08 736.82 69.97 736.8 69.85C736.79 69.64 736.77 69.4299 736.75 69.2299C736.74 69.1199 736.72 69 736.71 68.89C736.71 68.84 736.71 68.8 736.69 68.75C736.69 68.69 736.68 68.64 736.67 68.58C736.64 68.36 736.61 68.1499 736.58 67.9299C736.56 67.7699 736.53 67.62 736.5 67.47C736.5 67.43 736.49 67.39 736.48 67.35C736.48 67.32 736.47 67.28 736.46 67.25C736.41 67.01 736.37 66.7699 736.31 66.5399C736.28 66.4099 736.25 66.28 736.22 66.14C736.21 66.08 736.19 66.02 736.18 65.96C736.17 65.91 736.16 65.85 736.14 65.8C736.07 65.52 736 65.25 735.92 64.99C735.91 64.94 735.89 64.89 735.87 64.84C735.84 64.75 735.82 64.66 735.79 64.57C735.75 64.42 735.7 64.27 735.66 64.13C735.62 64 735.58 63.8799 735.54 63.7599C735.5 63.6299 735.46 63.51 735.41 63.38C735.39 63.31 735.36 63.24 735.34 63.17C735.29 63.03 735.24 62.91 735.19 62.77C735.13 62.6 735.06 62.4299 735 62.2599C734.98 62.2099 734.96 62.15 734.94 62.11C734.91 62.02 734.87 61.9499 734.84 61.8699C734.72 61.5799 734.61 61.31 734.49 61.05C734.47 60.99 734.44 60.9299 734.41 60.8699C734.38 60.8099 734.36 60.77 734.34 60.71C734.27 60.57 734.21 60.44 734.15 60.3C734.09 60.18 734.04 60.06 733.98 59.95C733.92 59.83 733.87 59.73 733.82 59.63C733.79 59.57 733.76 59.5 733.73 59.45C733.71 59.41 733.7 59.39 733.68 59.36C733.61 59.23 733.56 59.1399 733.51 59.0399C733.48 58.9899 733.46 58.95 733.44 58.91C733.38 58.8 733.34 58.73 733.32 58.7L726.54 62.64C726.54 62.64 726.6 62.75 726.66 62.86C726.68 62.89 726.7 62.94 726.72 62.97C726.77 63.06 726.83 63.17 726.9 63.3C726.94 63.38 726.99 63.47 727.03 63.56C727.08 63.66 727.14 63.77 727.19 63.89C727.24 64 727.3 64.12 727.36 64.24C727.42 64.37 727.48 64.4999 727.55 64.6499C727.6 64.7599 727.65 64.88 727.7 64.99C727.81 65.25 727.93 65.52 728.05 65.81C728.1 65.94 728.16 66.07 728.21 66.21C728.27 66.37 728.34 66.55 728.4 66.72C728.47 66.92 728.55 67.12 728.62 67.33C728.66 67.45 728.7 67.58 728.75 67.71C728.84 67.97 728.92 68.24 729.01 68.52C729.04 68.61 729.07 68.7 729.09 68.8C729.2 69.17 729.3 69.5399 729.39 69.9299C729.4 69.9899 729.42 70.05 729.43 70.11C729.52 70.51 729.61 70.91 729.69 71.32C729.69 71.36 729.7 71.4 729.71 71.45C729.78 71.87 729.85 72.2899 729.9 72.7299C729.9 72.7799 729.91 72.8199 729.92 72.8699C729.97 73.2999 730 73.7399 730.02 74.1799C730.02 74.2199 730.02 74.26 730.02 74.3C730.04 74.77 730.04 75.24 730.02 75.71C730.02 75.72 730.02 75.73 730.02 75.74C730 76.2 729.96 76.67 729.89 77.13C729.89 77.18 729.88 77.22 729.87 77.27C729.81 77.7 729.72 78.14 729.61 78.57C729.59 78.63 729.58 78.6999 729.56 78.7599C729.44 79.2099 729.3 79.67 729.12 80.11C728.96 80.52 728.81 80.8799 728.67 81.2299C728.63 81.3299 728.59 81.42 728.55 81.52C728.44 81.77 728.34 82 728.24 82.22C728.2 82.3 728.17 82.37 728.13 82.45C727.98 82.76 727.84 83.0399 727.7 83.2899C727.67 83.3399 727.64 83.39 727.61 83.44C727.48 83.67 727.36 83.87 727.24 84.07C727.22 84.1 727.2 84.13 727.18 84.16C727.07 84.33 726.96 84.4999 726.85 84.6499C726.82 84.6899 726.8 84.7199 726.77 84.7599C726.68 84.8799 726.6 85 726.51 85.11C726.47 85.16 726.43 85.21 726.4 85.25C726.32 85.35 726.24 85.45 726.16 85.55C726.12 85.6 726.08 85.65 726.04 85.69C725.94 85.81 725.84 85.93 725.73 86.06C725.6 86.21 725.47 86.3699 725.33 86.5399C725.3 86.5799 725.26 86.63 725.23 86.67C725.13 86.79 725.03 86.92 724.92 87.06C724.87 87.12 724.82 87.19 724.78 87.25C724.68 87.39 724.57 87.5299 724.46 87.6799C724.41 87.7499 724.36 87.81 724.31 87.88C724.15 88.1 723.99 88.34 723.81 88.61C723.77 88.65 723.7 88.73 723.6 88.85C723.56 88.89 723.52 88.95 723.47 89C723.38 89.1 723.29 89.21 723.17 89.35C723.11 89.43 723.04 89.51 722.97 89.59C722.85 89.74 722.72 89.9 722.58 90.07C722.49 90.18 722.4 90.29 722.31 90.41C722.16 90.6 722.01 90.79 721.85 91C721.74 91.14 721.64 91.27 721.53 91.42C721.36 91.65 721.18 91.89 720.99 92.14C720.88 92.29 720.77 92.44 720.65 92.6C720.42 92.92 720.19 93.25 719.95 93.6C719.87 93.71 719.8 93.8099 719.72 93.9299C719.42 94.3799 719.11 94.84 718.81 95.32C718.81 95.34 718.79 95.3499 718.78 95.3699C718.38 95.9999 717.98 96.67 717.59 97.35C717.48 97.54 717.39 97.73 717.28 97.91C716.99 98.43 716.72 98.96 716.46 99.5C716.39 99.64 716.32 99.7599 716.25 99.8999C716.2 99.9999 716.17 100.1 716.12 100.21C715.87 100.76 715.63 101.31 715.42 101.87C715.36 102.02 715.29 102.16 715.23 102.31C715.21 102.36 715.2 102.41 715.18 102.46C715.11 102.65 715.06 102.83 714.99 103.02C714.89 103.32 714.78 103.61 714.69 103.91C714.65 104.05 714.62 104.18 714.58 104.32C714.55 104.44 714.52 104.55 714.49 104.67C714.46 104.8 714.42 104.93 714.39 105.07C714.32 105.39 714.25 105.71 714.19 106.03C714.17 106.13 714.16 106.23 714.14 106.34C714.14 106.38 714.13 106.42 714.12 106.45C714.11 106.53 714.09 106.61 714.08 106.69C714.05 106.91 714.03 107.13 714.01 107.34C714 107.51 713.99 107.67 713.98 107.84C713.98 107.98 713.98 108.12 713.97 108.25C713.97 108.25 713.97 108.25 713.97 108.26C713.97 108.26 713.97 108.27 713.97 108.28C713.97 108.43 713.97 108.57 713.97 108.72C713.97 108.85 713.97 108.98 713.99 109.11C713.99 109.22 714 109.32 714.01 109.43C714.02 109.54 714.03 109.64 714.04 109.74C714.05 109.84 714.07 109.95 714.08 110.05C714.08 110.05 714.08 110.05 714.08 110.06C714.1 110.16 714.11 110.26 714.13 110.35C714.15 110.44 714.17 110.54 714.19 110.63C714.21 110.72 714.23 110.81 714.25 110.9C714.27 110.99 714.3 111.08 714.32 111.17C714.35 111.26 714.37 111.35 714.4 111.44C714.43 111.53 714.46 111.62 714.49 111.7C714.49 111.73 714.51 111.75 714.52 111.78L721.3 107.84C721.1 107.29 720.95 106.71 720.86 106.13C720.77 105.54 720.73 104.94 720.74 104.33C720.74 103.74 720.8 103.14 720.89 102.53C720.89 102.49 720.9 102.45 720.91 102.42C720.99 101.87 721.11 101.31 721.26 100.76C721.29 100.64 721.32 100.53 721.35 100.41C721.47 99.98 721.61 99.55 721.76 99.11C721.82 98.93 721.88 98.74 721.95 98.56C722.02 98.36 722.11 98.16 722.19 97.96C722.41 97.4 722.64 96.85 722.89 96.3C723 96.06 723.11 95.83 723.23 95.6C723.49 95.06 723.77 94.5299 724.05 94.0099C724.15 93.8199 724.25 93.63 724.36 93.44C724.75 92.76 725.14 92.09 725.54 91.46C725.86 90.96 726.17 90.48 726.48 90.02C726.56 89.91 726.63 89.8 726.71 89.69C726.95 89.35 727.18 89.01 727.41 88.69C727.52 88.53 727.63 88.39 727.74 88.24C727.92 87.99 728.11 87.7399 728.28 87.5099C728.39 87.3599 728.5 87.22 728.6 87.09C728.76 86.88 728.92 86.68 729.06 86.5C729.15 86.38 729.25 86.26 729.33 86.16C729.47 85.99 729.6 85.8299 729.72 85.6799C729.79 85.5899 729.87 85.4999 729.93 85.4299C730.04 85.2899 730.14 85.17 730.23 85.07C730.27 85.03 730.32 84.9699 730.35 84.9299C730.45 84.8099 730.53 84.7199 730.57 84.6799C730.75 84.4199 730.91 84.18 731.07 83.95C731.12 83.88 731.17 83.81 731.22 83.75C731.33 83.6 731.43 83.46 731.54 83.32C731.59 83.25 731.64 83.19 731.69 83.13C731.79 83 731.89 82.87 731.99 82.75C732.03 82.7 732.06 82.66 732.1 82.61C732.22 82.46 732.35 82.31 732.46 82.17C732.58 82.03 732.69 81.8899 732.8 81.7599C732.84 81.7099 732.87 81.6699 732.91 81.6199C732.99 81.5199 733.07 81.42 733.15 81.32C733.19 81.27 733.23 81.22 733.26 81.17C733.35 81.06 733.43 80.94 733.52 80.82C733.55 80.78 733.57 80.75 733.6 80.72C733.71 80.57 733.82 80.3999 733.93 80.2299C733.93 80.2299 733.94 80.21 733.95 80.2C733.96 80.18 733.97 80.16 733.99 80.14C734.11 79.95 734.23 79.7399 734.36 79.5099C734.39 79.4599 734.42 79.41 734.45 79.36C734.59 79.1 734.73 78.8199 734.88 78.5099C734.89 78.4899 734.9 78.47 734.91 78.44C734.93 78.39 734.96 78.33 734.98 78.28C735.08 78.06 735.19 77.83 735.29 77.58C735.33 77.49 735.37 77.39 735.41 77.3C735.56 76.96 735.71 76.5899 735.87 76.1799C735.89 76.1199 735.92 76.05 735.94 75.99C736.05 75.71 736.14 75.43 736.22 75.14C736.25 75.04 736.27 74.93 736.3 74.83C736.32 74.77 736.33 74.71 736.35 74.64C736.37 74.56 736.4 74.4799 736.41 74.3999C736.46 74.1599 736.51 73.93 736.55 73.69C736.57 73.58 736.58 73.46 736.6 73.34C736.6 73.29 736.61 73.25 736.62 73.2C736.62 73.14 736.64 73.08 736.65 73.02C736.68 72.81 736.7 72.59 736.72 72.38C736.74 72.19 736.75 72 736.76 71.81C736.76 71.81 736.76 71.79 736.76 71.78V71.7599L736.81 71.71Z" fill="url(#paint16_linear_1976_1353)"/>
<path d="M718.2 41.71L724.98 37.77C725.71 37.35 726.34 37.07 726.83 37L720.05 40.94C719.56 41.01 718.92 41.29 718.2 41.71Z" fill="url(#paint17_linear_1976_1353)"/>
<path d="M718.2 41.71L724.98 37.77C725.46 37.49 725.9 37.28 726.28 37.14L719.5 41.08C719.12 41.22 718.68 41.43 718.2 41.71Z" fill="url(#paint18_linear_1976_1353)"/>
<path d="M719.5 41.0799L726.28 37.1399C726.42 37.0899 726.56 37.0499 726.68 37.0199L719.9 40.9599C719.77 40.9899 719.64 41.0299 719.5 41.0799Z" fill="url(#paint19_linear_1976_1353)"/>
<path d="M719.9 40.97L726.68 37.03C726.68 37.03 726.78 37.01 726.83 37L720.05 40.94C720.05 40.94 719.95 40.96 719.9 40.97Z" fill="url(#paint20_linear_1976_1353)"/>
<path d="M732.71 86.4499C732.86 86.7699 735.74 92.7699 734.92 97.7699C734.02 102.99 732.82 104.27 730.65 106.43C730.58 106.39 721.03 117.46 723.48 124.26C723 123.71 713.92 113.35 720.19 100.74C720.4 100.34 724.37 92.8399 732.7 86.4399L732.71 86.4499Z" fill="url(#paint21_linear_1976_1353)"/>
<path d="M741.85 91.86C741.85 91.75 741.85 91.63 741.85 91.52C741.85 91.35 741.84 91.18 741.83 91.01C741.83 91 741.83 90.99 741.83 90.97C741.83 90.95 741.83 90.93 741.83 90.9C741.83 90.76 741.81 90.62 741.8 90.48C741.79 90.33 741.77 90.18 741.75 90.04C741.75 90.02 741.75 90 741.75 89.98C741.75 89.97 741.75 89.96 741.75 89.94C741.73 89.75 741.7 89.55 741.67 89.36C741.66 89.29 741.64 89.21 741.63 89.14C741.62 89.07 741.61 89.01 741.6 88.94C741.59 88.87 741.58 88.81 741.57 88.74C741.53 88.55 741.49 88.36 741.45 88.17C741.45 88.15 741.45 88.13 741.44 88.11C741.44 88.11 741.44 88.1 741.44 88.09C741.39 87.85 741.33 87.62 741.28 87.39C741.28 87.36 741.26 87.33 741.26 87.3C741.23 87.2 741.21 87.1 741.18 86.99C741.15 86.87 741.12 86.74 741.08 86.63C741.07 86.59 741.06 86.55 741.04 86.51C741 86.36 740.95 86.22 740.91 86.08C740.88 85.99 740.86 85.9 740.83 85.81C740.82 85.78 740.81 85.75 740.8 85.72C740.71 85.43 740.61 85.15 740.52 84.9C740.52 84.9 740.52 84.89 740.52 84.88C740.41 84.56 740.3 84.27 740.19 84C740.18 83.97 740.17 83.94 740.16 83.91C740.14 83.87 740.13 83.84 740.12 83.81C740.07 83.7 740.03 83.59 739.99 83.49C739.96 83.42 739.93 83.35 739.91 83.29C739.87 83.19 739.83 83.11 739.8 83.03C739.78 83 739.77 82.95 739.75 82.92C739.75 82.91 739.75 82.9 739.74 82.89C739.72 82.84 739.7 82.8 739.68 82.76C739.62 82.63 739.58 82.54 739.56 82.51L732.78 86.45C732.78 86.45 732.84 86.57 732.89 86.69C732.91 86.74 732.93 86.78 732.96 86.84C732.98 86.88 733 86.93 733.02 86.97C733.06 87.05 733.09 87.14 733.14 87.24C733.16 87.3 733.19 87.37 733.22 87.43C733.26 87.53 733.31 87.64 733.35 87.76C733.37 87.82 733.4 87.89 733.43 87.95C733.54 88.22 733.65 88.51 733.76 88.84C733.85 89.1 733.95 89.38 734.04 89.67C734.08 89.78 734.11 89.9 734.15 90.02C734.2 90.17 734.24 90.31 734.28 90.46C734.32 90.62 734.37 90.78 734.41 90.94C734.44 91.05 734.47 91.15 734.49 91.26C734.56 91.52 734.62 91.79 734.68 92.06C734.68 92.08 734.68 92.1 734.69 92.12C734.74 92.37 734.79 92.63 734.84 92.89C734.85 92.96 734.86 93.02 734.87 93.09C734.92 93.36 734.96 93.64 734.99 93.92C734.99 93.94 734.99 93.96 734.99 93.98C735.02 94.27 735.05 94.55 735.07 94.84C735.07 94.86 735.07 94.89 735.07 94.91C735.09 95.21 735.1 95.5 735.1 95.8C735.1 95.83 735.1 95.86 735.1 95.89C735.1 96.18 735.09 96.48 735.07 96.77C735.07 96.8 735.07 96.82 735.07 96.85C735.05 97.16 735.01 97.47 734.96 97.77C734.96 97.8 734.95 97.83 734.94 97.86C734.84 98.46 734.73 99.01 734.61 99.51C734.61 99.51 734.61 99.53 734.61 99.54C734.52 99.94 734.42 100.31 734.32 100.66C734.3 100.73 734.28 100.79 734.26 100.86C734.17 101.17 734.07 101.47 733.97 101.75C733.95 101.8 733.93 101.84 733.92 101.89C733.81 102.17 733.7 102.44 733.59 102.69C733.59 102.71 733.58 102.72 733.57 102.74C733.4 103.1 733.22 103.42 733.03 103.73C733.03 103.73 733.02 103.75 733.01 103.76C732.7 104.24 732.37 104.67 731.99 105.09C731.97 105.11 731.95 105.13 731.94 105.15C731.56 105.57 731.15 105.98 730.7 106.44C730.7 106.44 730.65 106.48 730.59 106.55C730.57 106.57 730.54 106.6 730.52 106.63C730.46 106.69 730.4 106.77 730.32 106.86C730.28 106.91 730.23 106.97 730.18 107.03C730.09 107.13 730 107.24 729.9 107.37C729.84 107.45 729.77 107.53 729.7 107.62C729.59 107.76 729.48 107.9 729.36 108.06C729.28 108.16 729.2 108.27 729.12 108.38C728.99 108.55 728.85 108.74 728.71 108.93C728.63 109.04 728.55 109.15 728.46 109.27C728.29 109.51 728.11 109.77 727.93 110.03C727.87 110.12 727.81 110.2 727.75 110.3C727.51 110.65 727.27 111.01 727.03 111.39C727.03 111.4 727.02 111.41 727.01 111.42C726.69 111.93 726.37 112.46 726.06 113.01C725.97 113.16 725.89 113.31 725.81 113.46C725.57 113.89 725.35 114.33 725.13 114.78C725.07 114.89 725.01 115 724.96 115.11C724.93 115.17 724.91 115.24 724.88 115.3C724.63 115.84 724.39 116.39 724.18 116.95C724.17 116.99 724.15 117.03 724.13 117.06C724.13 117.06 724.13 117.07 724.13 117.08C724.11 117.14 724.09 117.2 724.07 117.26C723.94 117.62 723.82 117.98 723.71 118.34C723.69 118.4 723.68 118.45 723.67 118.51C723.65 118.59 723.63 118.67 723.61 118.74C723.57 118.9 723.52 119.07 723.48 119.23C723.42 119.47 723.37 119.71 723.33 119.95C723.33 119.98 723.33 120.02 723.31 120.05C723.31 120.08 723.31 120.1 723.3 120.13C723.28 120.25 723.26 120.37 723.25 120.49C723.23 120.66 723.21 120.83 723.2 121C723.2 121.12 723.18 121.24 723.18 121.35C723.18 121.4 723.18 121.46 723.18 121.51C723.18 121.52 723.18 121.54 723.18 121.55C723.18 121.6 723.18 121.65 723.18 121.69C723.18 121.81 723.18 121.92 723.18 122.04C723.18 122.13 723.18 122.21 723.19 122.3C723.19 122.38 723.2 122.46 723.21 122.54C723.21 122.62 723.23 122.7 723.24 122.78C723.24 122.83 723.25 122.87 723.26 122.92C723.26 122.92 723.26 122.93 723.26 122.94C723.26 122.97 723.26 122.99 723.27 123.02C723.28 123.1 723.29 123.17 723.31 123.25C723.32 123.32 723.34 123.38 723.35 123.45C723.36 123.52 723.38 123.58 723.4 123.65C723.42 123.72 723.43 123.78 723.45 123.85C723.47 123.92 723.49 123.98 723.51 124.04C723.53 124.1 723.55 124.17 723.57 124.23C723.57 124.23 723.57 124.25 723.57 124.26L729.09 121.05C729.8 120.64 730.15 119.83 730.04 119.02C730.04 119.02 730.04 119.02 730.04 119.01C730.04 119.01 730.04 119 730.04 118.99C729.98 118.55 729.96 118.09 729.97 117.62C729.97 117.61 729.97 117.59 729.97 117.58C729.98 117.12 730.03 116.66 730.11 116.19C730.11 116.17 730.11 116.14 730.12 116.12C730.19 115.68 730.29 115.25 730.41 114.8C730.43 114.72 730.45 114.64 730.47 114.57C730.59 114.16 730.72 113.74 730.87 113.32C730.89 113.26 730.91 113.2 730.93 113.14C730.95 113.09 730.97 113.05 730.99 113C731.2 112.45 731.44 111.9 731.69 111.36C731.77 111.18 731.86 111.01 731.94 110.84C732.16 110.39 732.39 109.95 732.62 109.52C732.7 109.37 732.78 109.22 732.87 109.07C733.18 108.52 733.5 107.98 733.83 107.47C734.08 107.08 734.32 106.71 734.56 106.35C734.63 106.25 734.69 106.16 734.76 106.06C734.94 105.81 735.11 105.55 735.28 105.32C735.37 105.19 735.46 105.08 735.54 104.96C735.68 104.77 735.81 104.59 735.94 104.42C736.03 104.31 736.11 104.2 736.19 104.09C736.31 103.94 736.42 103.79 736.52 103.66C736.59 103.57 736.66 103.48 736.72 103.41C736.82 103.28 736.91 103.17 737 103.07C737.05 103.01 737.1 102.95 737.14 102.9C737.22 102.81 737.29 102.73 737.34 102.67C737.36 102.64 737.4 102.61 737.41 102.59C737.47 102.52 737.52 102.48 737.52 102.48C737.97 102.03 738.38 101.61 738.76 101.19C738.78 101.17 738.8 101.15 738.81 101.13C739.18 100.71 739.52 100.28 739.83 99.8C739.83 99.8 739.83 99.8 739.84 99.79C739.84 99.79 739.84 99.79 739.84 99.78C740.03 99.48 740.21 99.15 740.38 98.79C740.38 98.79 740.38 98.79 740.38 98.78C740.38 98.77 740.39 98.75 740.4 98.74C740.52 98.49 740.63 98.23 740.73 97.95C740.74 97.92 740.76 97.89 740.77 97.86C740.77 97.84 740.78 97.82 740.79 97.81C740.89 97.53 740.99 97.24 741.08 96.93C741.08 96.9 741.1 96.88 741.11 96.85C741.12 96.81 741.13 96.77 741.14 96.73C741.24 96.38 741.34 96.01 741.43 95.61C741.43 95.61 741.43 95.6 741.43 95.59C741.54 95.09 741.65 94.54 741.76 93.95C741.76 93.93 741.76 93.92 741.76 93.9C741.76 93.88 741.76 93.86 741.76 93.85C741.78 93.71 741.8 93.57 741.82 93.43C741.84 93.28 741.85 93.14 741.86 92.99C741.86 92.97 741.86 92.95 741.86 92.93C741.86 92.9 741.86 92.88 741.86 92.85C741.86 92.74 741.88 92.63 741.88 92.52C741.88 92.36 741.89 92.2 741.89 92.04C741.89 92.02 741.89 92 741.89 91.98C741.89 91.95 741.89 91.92 741.89 91.89L741.85 91.86Z" fill="url(#paint22_linear_1976_1353)"/>
<path d="M687.27 159.11V162.03H670V138.81H686.72V141.73H673.44V148.86H685.29V151.67H673.44V159.12H687.28L687.27 159.11Z" fill="white"/>
<path d="M703.54 162.03L698.34 155.33L693.14 162.03H689.49L696.58 153.07L689.83 144.54H693.48L698.46 150.8L703.33 144.54H706.87L700.12 153.07L707.32 162.03H703.56H703.54Z" fill="white"/>
<path d="M711.4 161.6C710.07 161.17 708.96 160.74 708.19 160.09L709.52 157.61C710.29 158.15 711.29 158.58 712.4 158.91C713.51 159.23 714.61 159.45 715.83 159.45C718.71 159.45 720.15 158.69 720.15 157.07C720.15 156.53 719.93 156.1 719.6 155.77C719.27 155.45 718.71 155.23 718.16 155.12C717.61 155.01 716.72 154.8 715.72 154.69C714.28 154.47 713.06 154.26 712.18 153.93C711.29 153.61 710.52 153.17 709.86 152.53C709.2 151.88 708.86 150.91 708.86 149.61C708.86 147.99 709.52 146.8 710.85 145.83C712.18 144.86 714.06 144.43 716.27 144.43C717.49 144.43 718.71 144.54 719.81 144.86C721.03 145.18 722.02 145.51 722.8 146.05L721.36 148.53C719.92 147.56 718.15 147.13 716.16 147.13C714.83 147.13 713.72 147.35 713.06 147.78C712.29 148.21 711.95 148.75 711.95 149.51C711.95 150.05 712.17 150.48 712.61 150.91C713.05 151.34 713.5 151.45 714.16 151.67C714.71 151.78 715.6 151.99 716.71 152.21C718.15 152.43 719.37 152.75 720.25 152.97C721.14 153.29 721.91 153.73 722.57 154.37C723.23 155.02 723.57 155.99 723.57 157.18C723.57 158.8 722.91 159.99 721.47 160.96C720.03 161.93 718.15 162.36 715.82 162.36C714.16 162.14 712.83 162.04 711.39 161.6H711.4Z" fill="white"/>
<path d="M730.22 161.06C728.78 160.3 727.67 159.22 726.9 157.82C726.13 156.42 725.68 154.9 725.68 153.18C725.68 151.46 726.12 149.94 726.9 148.54C727.67 147.14 728.78 146.16 730.22 145.41C731.66 144.65 733.21 144.22 734.98 144.22C736.75 144.22 738.41 144.65 739.74 145.41C741.18 146.17 742.29 147.25 743.06 148.54C743.83 149.94 744.28 151.46 744.28 153.18C744.28 154.9 743.84 156.42 743.06 157.82C742.29 159.22 741.18 160.2 739.74 161.06C738.3 161.82 736.75 162.25 734.98 162.25C733.21 162.14 731.66 161.82 730.22 161.06ZM738.08 158.68C738.97 158.14 739.74 157.38 740.18 156.52C740.73 155.55 740.95 154.47 740.95 153.28C740.95 152.09 740.73 151.01 740.18 150.04C739.63 149.07 738.96 148.42 738.08 147.88C737.19 147.34 736.09 147.12 734.98 147.12C733.87 147.12 732.77 147.34 731.88 147.88C730.99 148.42 730.22 149.07 729.67 150.04C729.12 151.01 728.9 152.09 728.9 153.28C728.9 154.47 729.12 155.55 729.67 156.52C730.22 157.49 730.89 158.14 731.88 158.68C732.77 159.22 733.87 159.44 734.98 159.44C736.09 159.44 737.19 159.12 738.08 158.68Z" fill="white"/>
<path d="M751.14 142.91V144.42H756.34V147.01H751.14V161.92H747.93V147.12H744.83V144.53H747.93V143.02C747.93 141.29 748.48 139.89 749.48 138.92C750.48 137.95 752.03 137.41 753.8 137.41C754.57 137.41 755.24 137.52 755.79 137.63C756.45 137.85 757.01 138.06 757.45 138.39L756.45 140.77C755.68 140.23 754.9 139.91 753.9 139.91C752.13 139.91 751.13 140.88 751.13 142.93L751.14 142.91Z" fill="white"/>
<path d="M770.51 160.95C770.07 161.38 769.4 161.6 768.74 161.81C768.08 162.03 767.3 162.13 766.53 162.13C764.76 162.13 763.32 161.7 762.32 160.73C761.32 159.76 760.88 158.46 760.88 156.63V147.02H757.78V144.43H760.88V140.65H764.09V144.43H769.29V147.02H764.09V156.52C764.09 157.49 764.31 158.25 764.86 158.68C765.3 159.22 766.08 159.44 766.96 159.44C767.96 159.44 768.84 159.12 769.51 158.58L770.51 160.96V160.95Z" fill="white"/>
</g>
<defs>
<linearGradient id="paint0_linear_1976_1353" x1="1.31428e-06" y1="100" x2="1440" y2="100" gradientUnits="userSpaceOnUse">
<stop stop-color="#495A72"/>
<stop offset="0.523958" stop-color="#10284A"/>
<stop offset="1" stop-color="#495A72"/>
</linearGradient>
<linearGradient id="paint1_linear_1976_1353" x1="173.583" y1="-113.115" x2="473.998" y2="148.503" gradientUnits="userSpaceOnUse">
<stop offset="0.04" stop-color="#00FCFE"/>
<stop offset="0.09" stop-color="#0FD4F7"/>
<stop offset="0.13" stop-color="#1CB2F2"/>
<stop offset="0.18" stop-color="#2796ED"/>
<stop offset="0.23" stop-color="#2F80E9"/>
<stop offset="0.28" stop-color="#3570E7"/>
<stop offset="0.35" stop-color="#3867E5"/>
<stop offset="0.44" stop-color="#3A65E5"/>
<stop offset="1" stop-color="#3751DC"/>
</linearGradient>
<linearGradient id="paint2_linear_1976_1353" x1="-633.391" y1="617.395" x2="-822.868" y2="726.79" gradientUnits="userSpaceOnUse">
<stop stop-color="#292ACD"/>
<stop offset="1" stop-color="#3272F3"/>
</linearGradient>
<linearGradient id="paint3_linear_1976_1353" x1="-6.39996" y1="-33.09" x2="243.19" y2="109.71" gradientUnits="userSpaceOnUse">
<stop stop-color="#00FFFF"/>
<stop offset="0.06" stop-color="#0ADEF8"/>
<stop offset="0.15" stop-color="#16B8F0"/>
<stop offset="0.25" stop-color="#2098E9"/>
<stop offset="0.35" stop-color="#287DE4"/>
<stop offset="0.47" stop-color="#2F69E0"/>
<stop offset="0.59" stop-color="#335ADD"/>
<stop offset="0.75" stop-color="#3652DB"/>
<stop offset="1" stop-color="#3750DB"/>
</linearGradient>
<linearGradient id="paint4_linear_1976_1353" x1="326.342" y1="65.6555" x2="450.146" y2="203.057" gradientUnits="userSpaceOnUse">
<stop offset="0.04" stop-color="#7E98E0"/>
<stop offset="0.425162" stop-color="#3362EF"/>
<stop offset="1" stop-color="#1E4983"/>
</linearGradient>
<linearGradient id="paint5_linear_1976_1353" x1="-485.144" y1="721.187" x2="-589.127" y2="781.222" gradientUnits="userSpaceOnUse">
<stop stop-color="#292ACD"/>
<stop offset="1" stop-color="#3272F3"/>
</linearGradient>
<linearGradient id="paint6_linear_1976_1353" x1="258.42" y1="133.61" x2="395.4" y2="211.98" gradientUnits="userSpaceOnUse">
<stop stop-color="#00FFFF"/>
<stop offset="0.06" stop-color="#0ADEF8"/>
<stop offset="0.15" stop-color="#16B8F0"/>
<stop offset="0.25" stop-color="#2098E9"/>
<stop offset="0.35" stop-color="#287DE4"/>
<stop offset="0.47" stop-color="#2F69E0"/>
<stop offset="0.59" stop-color="#335ADD"/>
<stop offset="0.75" stop-color="#3652DB"/>
<stop offset="1" stop-color="#3750DB"/>
</linearGradient>
<linearGradient id="paint7_linear_1976_1353" x1="1007.14" y1="-27.56" x2="1112.26" y2="130.86" gradientUnits="userSpaceOnUse">
<stop offset="0.04" stop-color="#00FCFE"/>
<stop offset="0.09" stop-color="#0FD4F7"/>
<stop offset="0.13" stop-color="#1CB2F2"/>
<stop offset="0.18" stop-color="#2796ED"/>
<stop offset="0.23" stop-color="#2F80E9"/>
<stop offset="0.28" stop-color="#3570E7"/>
<stop offset="0.35" stop-color="#3867E5"/>
<stop offset="0.44" stop-color="#3A65E5"/>
<stop offset="1" stop-color="#3751DC"/>
</linearGradient>
<linearGradient id="paint8_linear_1976_1353" x1="316.807" y1="544.627" x2="192.463" y2="616.417" gradientUnits="userSpaceOnUse">
<stop stop-color="#292ACD"/>
<stop offset="1" stop-color="#3272F3"/>
</linearGradient>
<linearGradient id="paint9_linear_1976_1353" x1="889.03" y1="24.9601" x2="1052.82" y2="118.67" gradientUnits="userSpaceOnUse">
<stop stop-color="#00FFFF"/>
<stop offset="0.06" stop-color="#0ADEF8"/>
<stop offset="0.15" stop-color="#16B8F0"/>
<stop offset="0.25" stop-color="#2098E9"/>
<stop offset="0.35" stop-color="#287DE4"/>
<stop offset="0.47" stop-color="#2F69E0"/>
<stop offset="0.59" stop-color="#335ADD"/>
<stop offset="0.75" stop-color="#3652DB"/>
<stop offset="1" stop-color="#3750DB"/>
</linearGradient>
<linearGradient id="paint10_linear_1976_1353" x1="1197" y1="-5.00006" x2="1406.5" y2="227.5" gradientUnits="userSpaceOnUse">
<stop offset="0.04" stop-color="#7E98E0"/>
<stop offset="0.425162" stop-color="#3362EF"/>
<stop offset="1" stop-color="#1E4983"/>
</linearGradient>
<linearGradient id="paint11_linear_1976_1353" x1="748.888" y1="570.272" x2="572.921" y2="671.867" gradientUnits="userSpaceOnUse">
<stop stop-color="#292ACD"/>
<stop offset="1" stop-color="#3272F3"/>
</linearGradient>
<linearGradient id="paint12_linear_1976_1353" x1="1082.07" y1="109.98" x2="1313.86" y2="242.6" gradientUnits="userSpaceOnUse">
<stop stop-color="#00FFFF"/>
<stop offset="0.06" stop-color="#0ADEF8"/>
<stop offset="0.15" stop-color="#16B8F0"/>
<stop offset="0.25" stop-color="#2098E9"/>
<stop offset="0.35" stop-color="#287DE4"/>
<stop offset="0.47" stop-color="#2F69E0"/>
<stop offset="0.59" stop-color="#335ADD"/>
<stop offset="0.75" stop-color="#3652DB"/>
<stop offset="1" stop-color="#3750DB"/>
</linearGradient>
<linearGradient id="paint13_linear_1976_1353" x1="701.45" y1="48.5499" x2="733.05" y2="106.77" gradientUnits="userSpaceOnUse">
<stop offset="0.04" stop-color="#00EEFF"/>
<stop offset="0.08" stop-color="#0CD9F9"/>
<stop offset="0.13" stop-color="#1CBDF2"/>
<stop offset="0.19" stop-color="#29A7EC"/>
<stop offset="0.26" stop-color="#3297E8"/>
<stop offset="0.33" stop-color="#388EE5"/>
<stop offset="0.44" stop-color="#3A8CE5"/>
<stop offset="1" stop-color="#1B3B71"/>
</linearGradient>
<linearGradient id="paint14_linear_1976_1353" x1="703.36" y1="65.89" x2="729.64" y2="65.89" gradientUnits="userSpaceOnUse">
<stop stop-color="#293FCD"/>
<stop offset="1" stop-color="#329FF3"/>
</linearGradient>
<linearGradient id="paint15_linear_1976_1353" x1="699.73" y1="49.49" x2="731.33" y2="107.7" gradientUnits="userSpaceOnUse">
<stop offset="0.04" stop-color="#00EEFF"/>
<stop offset="0.08" stop-color="#0CD9F9"/>
<stop offset="0.13" stop-color="#1CBDF2"/>
<stop offset="0.19" stop-color="#29A7EC"/>
<stop offset="0.26" stop-color="#3297E8"/>
<stop offset="0.33" stop-color="#388EE5"/>
<stop offset="0.44" stop-color="#3A8CE5"/>
<stop offset="1" stop-color="#376BDC"/>
</linearGradient>
<linearGradient id="paint16_linear_1976_1353" x1="714" y1="85.22" x2="736.82" y2="85.22" gradientUnits="userSpaceOnUse">
<stop stop-color="#293FCD"/>
<stop offset="1" stop-color="#329FF3"/>
</linearGradient>
<linearGradient id="paint17_linear_1976_1353" x1="718.2" y1="39.35" x2="726.83" y2="39.35" gradientUnits="userSpaceOnUse">
<stop stop-color="#293FCD"/>
<stop offset="1" stop-color="#329FF3"/>
</linearGradient>
<linearGradient id="paint18_linear_1976_1353" x1="718.2" y1="39.42" x2="726.28" y2="39.42" gradientUnits="userSpaceOnUse">
<stop stop-color="#293FCD"/>
<stop offset="1" stop-color="#329FF3"/>
</linearGradient>
<linearGradient id="paint19_linear_1976_1353" x1="719.5" y1="39.0499" x2="726.69" y2="39.0499" gradientUnits="userSpaceOnUse">
<stop stop-color="#293FCD"/>
<stop offset="1" stop-color="#329FF3"/>
</linearGradient>
<linearGradient id="paint20_linear_1976_1353" x1="719.9" y1="38.98" x2="726.83" y2="38.98" gradientUnits="userSpaceOnUse">
<stop stop-color="#293FCD"/>
<stop offset="1" stop-color="#329FF3"/>
</linearGradient>
<linearGradient id="paint21_linear_1976_1353" x1="698.01" y1="50.4199" x2="729.61" y2="108.64" gradientUnits="userSpaceOnUse">
<stop offset="0.04" stop-color="#00EEFF"/>
<stop offset="0.08" stop-color="#0CD9F9"/>
<stop offset="0.13" stop-color="#1CBDF2"/>
<stop offset="0.19" stop-color="#29A7EC"/>
<stop offset="0.26" stop-color="#3297E8"/>
<stop offset="0.33" stop-color="#388EE5"/>
<stop offset="0.44" stop-color="#3A8CE5"/>
<stop offset="1" stop-color="#376BDC"/>
</linearGradient>
<linearGradient id="paint22_linear_1976_1353" x1="723.08" y1="103.39" x2="741.85" y2="103.39" gradientUnits="userSpaceOnUse">
<stop stop-color="#293FCD"/>
<stop offset="1" stop-color="#329FF3"/>
</linearGradient>
<clipPath id="clip0_1976_1353">
<rect width="1440" height="200" fill="white"/>
</clipPath>
</defs>
</svg>
