<svg width="25" height="24" viewBox="0 0 25 24" fill="none" xmlns="http://www.w3.org/2000/svg">
<g clip-path="url(#clip0_1976_1543)">
<path d="M19.4195 20.7315H15.5405H14.4959H14.2703V15.5284H15.972C16.4036 15.5284 16.6586 15.038 16.4036 14.6849L13.0934 10.1046C12.8825 9.81038 12.4461 9.81038 12.2352 10.1046L8.92502 14.6849C8.67002 15.038 8.92012 15.5284 9.35657 15.5284H11.0582V20.7315H10.8327H9.78812H5.29119C2.71661 20.5893 0.666748 18.1814 0.666748 15.5725C0.666748 13.7728 1.64264 12.2035 3.08931 11.3551C2.9569 10.9971 2.88824 10.6146 2.88824 10.2125C2.88824 8.37352 4.37414 6.88762 6.21313 6.88762C6.61035 6.88762 6.99286 6.95627 7.35085 7.08868C8.41501 4.83286 10.7101 3.26849 13.3778 3.26849C16.8302 3.2734 19.6745 5.91663 19.9982 9.28566C22.6512 9.74173 24.6667 12.1986 24.6667 14.9792C24.6667 17.951 22.3521 20.5255 19.4195 20.7315Z" fill="#1F5BD0"/>
</g>
<defs>
<clipPath id="clip0_1976_1543">
<rect width="24" height="24" fill="white" transform="translate(0.666748)"/>
</clipPath>
</defs>
</svg>
