<svg width="22" height="42" viewBox="0 0 22 42" fill="none" xmlns="http://www.w3.org/2000/svg">
<path d="M3.00179 32.6463C3.00179 32.6463 -4.40215 23.6165 4.04593 10.2338C4.04593 10.2338 10.5006 1.29659 12.5415 0C12.5415 0 15.579 3.65824 13.4432 8.56676C13.4432 8.56676 10.9278 13.2901 7.51059 17.8744C7.46313 17.8744 1.38811 27.0895 3.00179 32.6463Z" fill="#1F5BD0"/>
<path d="M9.40903 38.203C9.40903 38.203 2.0051 34.591 6.79867 23.709C6.79867 23.709 10.026 16.8092 16.4333 9.26123C16.4333 9.26123 19.7556 12.6879 17.9995 17.5038C16.7655 20.8842 16.2909 20.8842 14.8671 23.4774C14.8671 23.4774 7.46313 34.591 9.40903 38.203Z" fill="#1F5BD0"/>
<path d="M14.7245 41.9999C14.7245 41.9999 9.02918 39.2215 12.7312 30.84C12.7312 30.84 15.1991 25.5147 20.1351 19.7263C20.1351 19.7263 21.9386 22.088 21.464 24.9127C20.9419 27.8763 20.23 28.8951 18.9486 30.6547C18.9011 30.6547 13.2532 39.2215 14.7245 41.9999Z" fill="#1F5BD0"/>
</svg>
